<?xml version="1.0" encoding="UTF-8"?>
<svg id="Layer_2" data-name="Layer 2" xmlns="http://www.w3.org/2000/svg" xmlns:xlink="http://www.w3.org/1999/xlink" viewBox="0 0 147.05 184.47">
  <defs>
    <style>
      .cls-1 {
        clip-path: url(#clippath);
      }

      .cls-2 {
        fill: none;
      }

      .cls-2, .cls-3, .cls-4, .cls-5 {
        stroke-width: 0px;
      }

      .cls-3 {
        fill: #2e398e;
      }

      .cls-4 {
        fill: #4263e8;
      }

      .cls-5 {
        fill: #1ec522;
      }
    </style>
    <clipPath id="clippath">
      <rect class="cls-2" width="147.05" height="184.47"/>
    </clipPath>
  </defs>
  <g id="Layer_1-2" data-name="Layer 1">
    <g class="cls-1">
      <g>
        <path class="cls-3" d="m111.65,108.29c14.23-8.89,19.86-26.49,16.46-42.64-3.4-16.15-14.7-30.74-28.58-41.87-13.36-10.7-29.76-18.78-46.95-20.39-3.42-.32-30.28-.85-44.72,16.24C-3.15,32.67-.77,48.94,4,81.48c.73,4.98,2.89,18.56,8.79,37.69,11.7,37.89,17.84,57.77,34.46,63.56,14.12,4.92,33.62-1.1,38.86-11.48,3.87-7.65-2.13-13.48.39-34.38,1.17-9.71,3-13.14,4.3-15.03,4.59-6.65,13.75-9.1,20.85-13.54h0Zm-36.73-47.37c-6.59,5.11-16.76,3.94-22.59-.58-2.17-1.68-3.94-3.96-5.09-6.87-2.38-6.08.86-12.73,5.96-16.15,6.23-4.17,17.12-4.59,23.47,2.09,6.27,6.59,4.7,16.51-1.75,21.51Z"/>
        <path class="cls-4" d="m128.22,106.45c14.23-8.89,19.86-26.49,16.46-42.64-3.4-16.15-14.7-30.74-28.58-41.87C102.74,11.24,86.34,3.17,69.15,1.55c-3.42-.32-30.28-.85-44.72,16.24-11.01,13.04-8.63,29.31-3.86,61.85.73,4.98,2.89,18.56,8.79,37.69,11.7,37.89,17.84,57.77,34.46,63.56,14.12,4.92,33.62-1.1,38.86-11.48,3.87-7.65-2.13-13.48.39-34.38,1.17-9.71,3-13.14,4.3-15.03,4.59-6.65,13.75-9.1,20.85-13.54h0Zm-36.73-47.37c-6.59,5.11-16.76,3.94-22.59-.58-2.17-1.68-3.94-3.96-5.09-6.87-2.38-6.08.86-12.73,5.96-16.15,6.23-4.17,17.12-4.59,23.47,2.09,6.27,6.59,4.7,16.51-1.75,21.51Z"/>
        <path class="cls-5" d="m128.98,107.74c16.33-10.33,21.44-31.19,15.93-49.02-6.18-19.97-22.67-36.08-40.25-46.55-9.36-5.57-19.7-9.74-30.48-11.48-5.02-.81-9.87-.89-14.93-.37-14.98,1.51-31.09,7.46-39.18,20.99-3.26,5.45-4.59,11.71-4.91,18-.43,8.53.68,17.11,1.81,25.55,1.04,7.79,2.07,15.61,3.53,23.34,1.79,9.49,4.18,18.87,6.99,28.11,3.1,10.22,6.22,20.46,9.81,30.53,2.56,7.19,5.36,14.45,9.37,20.97,2.97,4.84,6.75,9.28,11.69,12.2,6.78,4,15.01,4.76,22.68,3.63s16.59-4.59,21.53-11.22c1.65-2.21,2.66-4.75,2.9-7.5.23-2.53-.21-5.08-.56-7.58-1.24-8.9-1.3-17.79.31-26.66.55-3.01,1.23-6.16,2.76-8.84,1.95-3.43,5.27-5.74,8.65-7.62,4.07-2.26,8.39-4.03,12.36-6.48,1.64-1.01.13-3.61-1.51-2.59-7.3,4.52-16.82,6.91-21.69,14.53-1.44,2.25-2.27,4.87-2.88,7.45-1.18,4.99-1.73,10.18-1.92,15.3-.14,3.99.05,7.97.53,11.93.33,2.68.83,5.36.98,8.05.12,2.19-.08,4.17-1.06,6.14-1.55,3.12-4.24,5.5-7.17,7.31-11.83,7.3-29.44,7.73-39.64-2.58-4.32-4.37-7.29-9.93-9.79-15.49-3.55-7.88-6.24-16.15-8.87-24.37-5.52-17.25-10.91-34.59-13.69-52.53-1.4-9.01-2.75-18.07-3.61-27.15-.66-6.99-1.11-14.26.31-21.19,1.25-6.07,4.13-11.46,8.51-15.86,5.65-5.69,13.05-9.26,20.72-11.33,5.68-1.54,11.57-2.34,17.45-2.4,7.16-.07,14.36,1.7,21.08,4.06,9.99,3.51,19.34,8.92,27.64,15.46,8.3,6.54,15.2,13.7,20.67,22.28,5.1,8.01,8.74,17.2,9.07,26.77.3,8.82-2.09,17.7-7.29,24.88-2.52,3.48-5.74,6.44-9.37,8.73-1.63,1.03-.12,3.63,1.51,2.59h0Z"/>
        <path class="cls-5" d="m90.74,57.78c-4.93,3.73-11.78,4-17.37,1.6-5.59-2.4-10.3-8.77-8.35-15.24,3.56-11.82,21.89-13.82,28.56-3.78,3.85,5.8,2.18,13.42-3.15,17.65-1.51,1.2.62,3.31,2.12,2.12,5.53-4.39,7.71-12.2,4.96-18.75-2.86-6.83-10.03-10.51-17.21-10.46-7.18.05-13.85,3.36-17.07,9.71-1.69,3.33-2.25,7.26-1.05,10.84,1.2,3.58,3.75,6.92,7.03,9.06,6.7,4.38,16.53,4.75,23.05-.17,1.52-1.15.03-3.76-1.51-2.59h-.01Z"/>
        <path class="cls-4" d="m29.03,20.64c-.86,1.47-1.95,2.81-2.77,4.31-2.51,4.58-2.27,10.12-1.97,15.4"/>
        <path class="cls-5" d="m27.73,19.88c-.93,1.56-2.09,2.98-2.93,4.6-.84,1.62-1.38,3.28-1.71,5.03-.67,3.58-.51,7.22-.31,10.83.11,1.92,3.11,1.93,3,0-.19-3.32-.41-6.74.2-10.03.3-1.6.78-3.17,1.56-4.61s1.89-2.84,2.77-4.31c.99-1.66-1.6-3.17-2.59-1.51h.01Z"/>
        <path class="cls-4" d="m31.96,17.53c1.11-1.35,2.69-2.36,4.48-2.87.73-.2,1.52-.34,2.08-.79"/>
        <path class="cls-5" d="m33.02,18.59c.19-.23.4-.46.62-.67.11-.11.22-.21.34-.31.05-.04.1-.09.16-.13.16-.13.12-.07-.02.01.27-.16.5-.36.77-.52s.55-.31.83-.45c.06-.03.13-.06.19-.09.18-.08,0,.02-.07.03.13,0,.32-.12.45-.17.31-.11.62-.19.93-.28.72-.19,1.47-.39,2.07-.84.32-.24.58-.49.69-.9.1-.36.05-.84-.15-1.16-.4-.62-1.38-1.04-2.05-.54-.12.09-.25.18-.39.25-.26.13-.05-.03.02,0-.03-.01-.17.06-.2.07-.33.11-.66.19-1,.28-.72.19-1.43.47-2.1.8-1.21.59-2.33,1.46-3.2,2.5-.5.6-.63,1.54,0,2.12.55.51,1.59.65,2.12,0h0Z"/>
        <path class="cls-4" d="m139.64,77.81c-.06.85-.12,1.7-.25,2.54-.51,3.46-2.07,6.71-4.48,9.31"/>
        <path class="cls-5" d="m138.14,77.81c-.15,2.09-.45,4.11-1.25,6.06-.71,1.73-1.77,3.35-3.03,4.74-.55.6-.59,1.53,0,2.12.55.55,1.57.6,2.12,0,1.59-1.74,2.84-3.7,3.73-5.88s1.26-4.61,1.43-7.04c.06-.81-.73-1.5-1.5-1.5-.86,0-1.44.69-1.5,1.5Z"/>
        <path class="cls-4" d="m133.05,93.18l-5.53,5.13,5.53-5.13Z"/>
        <path class="cls-5" d="m131.99,92.12c-1.84,1.71-3.68,3.42-5.53,5.13-.58.54-.58,1.59,0,2.12.62.57,1.51.57,2.12,0,1.84-1.71,3.68-3.42,5.53-5.13.58-.54.58-1.59,0-2.12-.62-.57-1.51-.57-2.12,0Z"/>
        <path class="cls-4" d="m134.29,79.09c-3.66,8.56-9.94,16.04-17.99,21.43l17.99-21.43Z"/>
        <path class="cls-5" d="m133,78.33c-3.67,8.5-9.78,15.72-17.45,20.9-1.59,1.07-.09,3.67,1.51,2.59,8.08-5.45,14.65-13,18.53-21.97.32-.75.22-1.6-.54-2.05-.63-.38-1.73-.2-2.05.54h0Z"/>
      </g>
    </g>
  </g>
</svg>