<?xml version="1.0" encoding="UTF-8"?>
<svg id="Layer_2" data-name="Layer 2" xmlns="http://www.w3.org/2000/svg" viewBox="0 0 22.5 22.5">
  <defs>
    <style>
      .cls-1 {
        fill: #2fc623;
        fill-rule: evenodd;
        stroke-width: 0px;
      }
    </style>
  </defs>
  <g id="Layer_1-2" data-name="Layer 1">
    <path class="cls-1" d="m6.25,7.5c0-1.33.53-2.6,1.46-3.54.94-.94,2.21-1.46,3.54-1.46s2.6.53,3.54,1.46c.94.94,1.46,2.21,1.46,3.54s-.53,2.6-1.46,3.54c-.94.94-2.21,1.46-3.54,1.46s-2.6-.53-3.54-1.46c-.94-.94-1.46-2.21-1.46-3.54Zm9.78,5.78c1.19-.98,2.05-2.31,2.45-3.8.41-1.49.35-3.07-.18-4.52-.52-1.45-1.48-2.71-2.74-3.6-1.26-.89-2.77-1.36-4.31-1.36s-3.05.48-4.31,1.36c-1.26.89-2.22,2.14-2.74,3.6-.52,1.45-.58,3.03-.18,4.52.41,1.49,1.26,2.82,2.45,3.8-3.99,1.4-6.47,4.53-6.47,7.97,0,.33.13.65.37.88.23.23.55.37.88.37s.65-.13.88-.37c.23-.23.37-.55.37-.88,0-2.84,2.94-6.25,8.75-6.25s8.75,3.41,8.75,6.25c0,.33.13.65.37.88s.55.37.88.37.65-.13.88-.37.37-.55.37-.88c0-3.44-2.48-6.57-6.47-7.97Z"/>
  </g>
</svg>