<?xml version="1.0" encoding="UTF-8"?><svg id="Layer_2" xmlns="http://www.w3.org/2000/svg" viewBox="0 0 202.42 192.99"><defs><style>.cls-1{fill:#f9ed32;}.cls-1,.cls-2,.cls-3{stroke-width:0px;}.cls-2{fill:#231f20;}.cls-3{fill:#fff;}</style></defs><g id="Elementer"><path class="cls-3" d="m123.54,63.99c-2.2-.29-1.29-8.78-4.15-19.1-.74-2.66-1.27-5.36-1.95-8.03-.71-2.78-.92-3.47-.83-4.73.2-2.76,1.51-3.5,1.05-5.78-.37-1.81-1.59-3.28-1.71-3.42-.8-.95-1.25-1.03-1.91-1.9-.98-1.31-1.05-2.57-1.22-3.59-.28-1.64-1.11-3.07-2.75-5.93-1.49-2.58-6.12-8.74-14.33-10.71-2.36-.57-7.19-1.73-11.83.53-5.4,2.63-6.96,8.16-7.63,10.53-1.54,5.44-.33,9.83,2.1,18.6,1.26,4.55,3.51,11.4,5.08,16.15.36,1.09,1.56,4.73,1.98,9.65.12,1.44.62,7.4-.76,7.72-1.01.23-2-2.75-6.1-7.9-3.58-4.49-5.93-6.12-8.39-7.02-.53-.19-4.05-1.44-4.96-.35-.75.9.65,2.96,1.14,3.69,2.14,3.14,4.38,3.22,6.87,5.97,2.08,2.3,3.31,5.31,2.67,5.79-.71.53-3.46-2.29-10.49-6.67-3.86-2.4-6.41-3.66-9.73-4.04-.56-.06-5.03-.55-5.53.7-.21.52.13,1.68,8.78,7.02,9.08,5.61,14.58,7.95,14.12,9.3-.32.92-3.23.88-3.43.88-1.93-.04-2.91-.76-4.58-1.4-.68-.26-6.09-2.27-9.92-.18-.2.11-2.71,1.52-2.48,2.98.33,2.1,6.02,2.92,7.63,3.16,8.39,1.22,14.16-1.36,15.64.88.34.51.48,1.31.19,1.93-.54,1.17-2.44,1.37-3.43,1.58-5.04,1.07-9.34,7.09-8.2,9.3.55,1.08,2.54,1.52,4.01,1.23,2.11-.42,2.72-2.26,5.53-5.79,1.03-1.29,4.9-6.15,6.1-5.62.86.38.37,3.53-.38,5.62-.55,1.52-1.1,2.1-1.34,3.69-.22,1.46-.13,3.42.38,3.51.77.14,2.97-3.94,3.62-8.42.4-2.75.08-4.64.95-4.91.76-.24,2.06.89,2.67,2.11.92,1.85.13,3.67-1.14,7.2-1.49,4.15-2.24,6.22-2.29,6.84-.46,5.75,5.54,7.66,5.15,12.99-.24,3.23-2.49,3.15-4.2,7.2-2.95,6.96,2.33,10.5,1.14,18.6-.2,1.39-2.81,5.8-8.01,14.57-5.75,9.69-8.78,14.61-7.25,15.97.61.54,1.4.03,4.2,0,4.42-.05,5.83,1.2,8.58,1.4,5.7.43,6.53-4.38,12.4-4.91,6.41-.58,7.93,4.92,14.31,4.39,5.97-.5,6.59-5.49,12.21-5.44,5.67.05,9.43,5.17,11.83,3.69.36-.22.98-.78,1.14-2.81.47-5.99-4.28-9.56-9.35-19.3-2.5-4.8-2.53-6.22-2.48-7.02.28-4.68,4.36-5.36,5.34-10.18.39-1.89-.12-2.38-3.24-12.46-2.44-7.89-2.49-8.74-2.48-9.48.07-6.08,3.79-6.64,4.01-12.28.25-6.54-4.54-11.14-2.48-12.81.56-.45,1.44-.54,2.1-.35,3.91,1.11,2.44,12.35,3.82,12.46.81.07,2.54-3.75,1.91-7.72-.42-2.64-1.73-4.46-1.53-4.56.3-.15,2.54,3.78,6.49,8.07,1.77,1.93,4.63,5.04,5.53,4.56.86-.45.02-4.13-1.91-7.2-3.15-4.99-8.21-6.74-7.63-8.07.34-.78,2.3-.71,2.67-.7,3.06.1,4.51,2.19,8.78,5.09,2.02,1.37,5.65,3.84,6.49,3.16.78-.62-.52-4.16-3.24-6.67-5.08-4.67-12.58-3.44-13.16-6.32-.15-.75.19-1.61.76-2.11,2.16-1.87,6.83,2.25,12.78.88,2.17-.5,4.51-1.73,4.39-2.63-.17-1.27-5.26-2.18-9.73-1.93-4.74.26-7.6,1.75-8.39.7-.62-.81.48-2.53,1.14-3.33,1.82-2.19,3.89-1.7,5.15-3.69.76-1.2,1.01-2.96.19-3.69-1.17-1.03-4.17.34-4.96.7-1.73.79-3.62,2.08-8.97,7.9-1.82,1.98-2.07,2.34-2.54,2.28Z"/><path class="cls-2" d="m102.45,25.11c.08-.52.57-3.68,3.2-5.33,2.05-1.29,4.38-1.01,4.39-.94,0,.06-1.47,0-3.04.85-2.32,1.26-3.25,3.64-3.37,3.96-.17.47-1.41,3.95.76,7.04,2.17,3.1,5.81,3.04,6.15,3.03.25,0,4.01-.2,5.91-3.37,1.92-3.2.75-7.41-1.43-9.36-3.37-3.01-9.3-.76-9.36-1.2-.05-.36,3.78-2.22,7.48-.65,2.3.98,3.45,2.81,3.74,3.31.28.48,1.34,2.39,1.1,4.98-.05.54-.41,3.81-3.2,5.84-2.62,1.9-6.4,1.99-9.17-.04-3.88-2.83-3.18-7.88-3.14-8.12Z"/><path class="cls-3" d="m103.47,24.39c.73-2.35,2.69-4.24,5.17-4.87.39-.1,3.27-.78,5.84.96,2.85,1.94,4.16,6.12,2.4,9.22-1.81,3.19-5.82,3.38-6.29,3.39-.73.02-4.37.03-6.36-2.88-1.71-2.5-.92-5.27-.75-5.83Z"/><path class="cls-2" d="m111.19,26.22c-.39-.38-1.09-.37-1.5-.04-.51.41-.46,1.23.06,1.57.37.24.9.2,1.26-.04.48-.33.63-1.06.18-1.48Z"/><path class="cls-2" d="m87.05,26.11c.08-.52.57-3.68,3.2-5.33,2.05-1.29,4.38-1.01,4.39-.94,0,.06-1.47,0-3.04.85-2.32,1.26-3.25,3.64-3.37,3.96-.17.47-1.41,3.95.76,7.04,2.17,3.1,5.81,3.04,6.15,3.03.25,0,4.01-.2,5.91-3.37,1.92-3.2.75-7.41-1.43-9.36-3.37-3.01-9.3-.76-9.36-1.2-.05-.36,3.78-2.22,7.48-.65,2.3.98,3.45,2.81,3.74,3.31.28.48,1.34,2.39,1.1,4.98-.05.54-.41,3.81-3.2,5.84-2.62,1.9-6.4,1.99-9.17-.04-3.88-2.83-3.18-7.88-3.14-8.12Z"/><path class="cls-2" d="m95.6,28.71c.48-.33.63-1.06.18-1.48-.39-.38-1.09-.37-1.5-.04-.51.41-.46,1.23.06,1.57.37.24.9.2,1.26-.04"/><path class="cls-3" d="m27.74,91.17c2.17-.29,1.27-8.78,4.1-19.1.73-2.66,1.25-5.36,1.92-8.03.7-2.78.91-3.47.81-4.73-.2-2.76-1.49-3.5-1.03-5.78.36-1.81,1.57-3.28,1.68-3.42.79-.95,1.24-1.03,1.89-1.9.97-1.31,1.03-2.57,1.21-3.59.28-1.64,1.09-3.07,2.72-5.93,1.47-2.58,6.04-8.74,14.14-10.71,2.33-.57,7.1-1.73,11.68.53,5.33,2.63,6.87,8.16,7.53,10.53,1.52,5.44.32,9.83-2.07,18.6-1.24,4.55-3.47,11.4-5.02,16.15-.35,1.09-1.54,4.73-1.95,9.65-.12,1.44-.62,7.4.75,7.72,1,.23,1.98-2.75,6.03-7.9,3.53-4.49,5.86-6.12,8.29-7.02.53-.19,4-1.44,4.9-.35.74.9-.64,2.96-1.13,3.69-2.11,3.14-4.32,3.22-6.78,5.97-2.06,2.3-3.27,5.31-2.64,5.79.7.53,3.41-2.29,10.36-6.67,3.81-2.4,6.33-3.66,9.6-4.04.56-.06,4.97-.55,5.46.7.21.52-.13,1.68-8.66,7.02-8.97,5.61-14.39,7.95-13.94,9.3.31.92,3.19.88,3.39.88,1.91-.04,2.88-.76,4.52-1.4.67-.26,6.01-2.27,9.79-.18.2.11,2.68,1.52,2.45,2.98-.32,2.1-5.94,2.92-7.53,3.16-8.28,1.22-13.98-1.36-15.44.88-.33.51-.47,1.31-.19,1.93.54,1.17,2.4,1.37,3.39,1.58,4.98,1.07,9.22,7.09,8.1,9.3-.55,1.08-2.51,1.52-3.95,1.23-2.08-.42-2.68-2.26-5.46-5.79-1.02-1.29-4.84-6.15-6.03-5.62-.85.38-.36,3.53.38,5.62.54,1.52,1.08,2.1,1.32,3.69.22,1.46.13,3.42-.38,3.51-.76.14-2.93-3.94-3.58-8.42-.4-2.75-.08-4.64-.94-4.91-.75-.24-2.04.89-2.64,2.11-.91,1.85-.12,3.67,1.13,7.2,1.47,4.15,2.21,6.22,2.26,6.84.46,5.75-5.47,7.66-5.08,12.99.23,3.23,2.45,3.15,4.14,7.2,2.91,6.96-2.3,10.5-1.13,18.6.2,1.39,2.77,5.8,7.91,14.57,5.68,9.69,8.67,14.61,7.16,15.97-.6.54-1.38.03-4.14,0-4.36-.05-5.76,1.2-8.47,1.4-5.63.43-6.45-4.38-12.24-4.91-6.32-.58-7.83,4.92-14.12,4.39-5.9-.5-6.51-5.49-12.05-5.44-5.6.05-9.31,5.17-11.68,3.69-.36-.22-.97-.78-1.13-2.81-.47-5.99,4.23-9.56,9.23-19.3,2.46-4.8,2.5-6.22,2.45-7.02-.28-4.68-4.3-5.36-5.27-10.18-.38-1.89.12-2.38,3.2-12.46,2.41-7.89,2.46-8.74,2.45-9.48-.06-6.08-3.74-6.64-3.95-12.28-.25-6.54,4.48-11.14,2.45-12.81-.55-.45-1.42-.54-2.07-.35-3.86,1.11-2.41,12.35-3.77,12.46-.8.07-2.5-3.75-1.88-7.72.41-2.64,1.71-4.46,1.51-4.56-.29-.15-2.51,3.78-6.4,8.07-1.75,1.93-4.57,5.04-5.46,4.56-.85-.45-.02-4.13,1.88-7.2,3.11-4.99,8.11-6.74,7.53-8.07-.34-.78-2.28-.71-2.64-.7-3.02.1-4.45,2.19-8.66,5.09-1.99,1.37-5.57,3.84-6.4,3.16-.77-.62.51-4.16,3.2-6.67,5.01-4.67,12.42-3.44,12.99-6.32.15-.75-.19-1.61-.75-2.11-2.14-1.87-6.74,2.25-12.62.88-2.14-.5-4.45-1.73-4.33-2.63.17-1.27,5.19-2.18,9.6-1.93,4.68.26,7.5,1.75,8.29.7.61-.81-.47-2.53-1.13-3.33-1.79-2.19-3.84-1.7-5.08-3.69-.75-1.2-1-2.96-.19-3.69,1.15-1.03,4.12.34,4.9.7,1.7.79,3.57,2.08,8.85,7.9,1.8,1.98,2.04,2.34,2.5,2.28Z"/><path class="cls-2" d="m48.56,52.29c-.08-.52-.56-3.68-3.16-5.33-2.03-1.29-4.32-1.01-4.33-.94,0,.06,1.45,0,3,.85,2.29,1.26,3.21,3.64,3.33,3.96.17.47,1.39,3.95-.75,7.04-2.14,3.1-5.73,3.04-6.07,3.03-.24,0-3.95-.2-5.83-3.37-1.89-3.2-.74-7.41,1.42-9.36,3.32-3.01,9.18-.76,9.24-1.2.05-.36-3.73-2.22-7.38-.65-2.27.98-3.4,2.81-3.69,3.31-.28.48-1.32,2.39-1.08,4.98.05.54.41,3.81,3.16,5.84,2.59,1.9,6.31,1.99,9.05-.04,3.83-2.83,3.14-7.88,3.1-8.12Z"/><path class="cls-3" d="m47.56,51.57c-.72-2.35-2.66-4.24-5.1-4.87-.38-.1-3.23-.78-5.76.96-2.82,1.94-4.1,6.12-2.37,9.22,1.79,3.19,5.74,3.38,6.21,3.39.72.02,4.31.03,6.28-2.88,1.69-2.5.91-5.27.74-5.83Z"/><path class="cls-2" d="m39.93,53.4c.39-.38,1.07-.37,1.48-.04.5.41.46,1.23-.06,1.57-.36.24-.89.2-1.24-.04-.47-.33-.62-1.06-.18-1.48Z"/><path class="cls-2" d="m63.76,53.3c-.08-.52-.56-3.68-3.16-5.33-2.03-1.29-4.32-1.01-4.33-.94,0,.06,1.45,0,3,.85,2.29,1.26,3.21,3.64,3.33,3.96.17.47,1.39,3.95-.75,7.04-2.14,3.1-5.73,3.04-6.07,3.03-.24,0-3.95-.2-5.83-3.37-1.89-3.2-.74-7.41,1.42-9.36,3.32-3.01,9.18-.76,9.24-1.2.05-.36-3.73-2.22-7.38-.65-2.27.98-3.4,2.81-3.69,3.31-.28.48-1.32,2.39-1.08,4.98.05.54.41,3.81,3.16,5.84,2.59,1.9,6.31,1.99,9.05-.04,3.83-2.83,3.14-7.88,3.1-8.12Z"/><path class="cls-2" d="m55.32,55.89c-.47-.33-.62-1.06-.18-1.48.39-.38,1.07-.37,1.48-.04.5.41.46,1.23-.06,1.57-.36.24-.89.2-1.24-.04"/><path class="cls-3" d="m174.31,87.35c-2.2-.29-1.29-8.78-4.15-19.1-.74-2.66-1.27-5.36-1.95-8.03-.71-2.78-.92-3.47-.83-4.73.2-2.76,1.51-3.5,1.05-5.78-.37-1.81-1.59-3.28-1.71-3.42-.8-.95-1.25-1.03-1.91-1.9-.98-1.31-1.05-2.57-1.22-3.59-.28-1.64-1.11-3.07-2.75-5.93-1.49-2.58-6.12-8.74-14.33-10.71-2.36-.57-7.19-1.73-11.83.53-5.4,2.63-6.96,8.16-7.63,10.53-1.54,5.44-.33,9.83,2.1,18.6,1.26,4.55,3.51,11.4,5.08,16.15.36,1.09,1.56,4.73,1.98,9.65.12,1.44.62,7.4-.76,7.72-1.01.23-2-2.75-6.1-7.9-3.58-4.49-5.93-6.12-8.39-7.02-.53-.19-4.05-1.44-4.96-.35-.75.9.65,2.96,1.14,3.69,2.14,3.14,4.38,3.22,6.87,5.97,2.08,2.3,3.31,5.31,2.67,5.79-.71.53-3.46-2.29-10.49-6.67-3.86-2.4-6.41-3.66-9.73-4.04-.56-.06-5.03-.55-5.53.7-.21.52.13,1.68,8.78,7.02,9.08,5.61,14.58,7.95,14.12,9.3-.32.92-3.23.88-3.43.88-1.93-.04-2.91-.76-4.58-1.4-.68-.26-6.09-2.27-9.92-.18-.2.11-2.71,1.52-2.48,2.98.33,2.1,6.02,2.92,7.63,3.16,8.39,1.22,14.16-1.36,15.64.88.34.51.48,1.31.19,1.93-.54,1.17-2.44,1.37-3.43,1.58-5.04,1.07-9.34,7.09-8.2,9.3.55,1.08,2.54,1.52,4.01,1.23,2.11-.42,2.72-2.26,5.53-5.79,1.03-1.29,4.9-6.15,6.1-5.62.86.38.37,3.53-.38,5.62-.55,1.52-1.1,2.1-1.34,3.69-.22,1.46-.13,3.42.38,3.51.77.14,2.97-3.94,3.62-8.42.4-2.75.08-4.64.95-4.91.76-.24,2.06.89,2.67,2.11.92,1.85.13,3.67-1.14,7.2-1.49,4.15-2.24,6.22-2.29,6.84-.46,5.75,5.54,7.66,5.15,12.99-.24,3.23-2.49,3.15-4.2,7.2-2.95,6.96,2.33,10.5,1.14,18.6-.2,1.39-2.81,5.8-8.01,14.57-5.75,9.69-8.78,14.61-7.25,15.97.61.54,1.4.03,4.2,0,4.42-.05,5.83,1.2,8.58,1.4,5.7.43,6.53-4.38,12.4-4.91,6.41-.58,7.93,4.92,14.31,4.39,5.97-.5,6.59-5.49,12.21-5.44,5.67.05,9.43,5.17,11.83,3.69.36-.22.98-.78,1.14-2.81.47-5.99-4.28-9.56-9.35-19.3-2.5-4.8-2.53-6.22-2.48-7.02.28-4.68,4.36-5.36,5.34-10.18.39-1.89-.12-2.38-3.24-12.46-2.44-7.89-2.49-8.74-2.48-9.48.07-6.08,3.79-6.64,4.01-12.28.25-6.54-4.54-11.14-2.48-12.81.56-.45,1.44-.54,2.1-.35,3.91,1.11,2.44,12.35,3.82,12.46.81.07,2.54-3.75,1.91-7.72-.42-2.64-1.73-4.46-1.53-4.56.3-.15,2.54,3.78,6.49,8.07,1.77,1.93,4.63,5.04,5.53,4.56.86-.45.02-4.13-1.91-7.2-3.15-4.99-8.21-6.74-7.63-8.07.34-.78,2.3-.71,2.67-.7,3.06.1,4.51,2.19,8.78,5.09,2.02,1.37,5.65,3.84,6.49,3.16.78-.62-.52-4.16-3.24-6.67-5.08-4.67-12.58-3.44-13.16-6.32-.15-.75.19-1.61.76-2.11,2.16-1.87,6.83,2.25,12.78.88,2.17-.5,4.51-1.73,4.39-2.63-.17-1.27-5.26-2.18-9.73-1.93-4.74.26-7.6,1.75-8.39.7-.62-.81.48-2.53,1.14-3.33,1.82-2.19,3.89-1.7,5.15-3.69.76-1.2,1.01-2.96.19-3.69-1.17-1.03-4.17.34-4.96.7-1.73.79-3.62,2.08-8.97,7.9-1.82,1.98-2.07,2.34-2.54,2.28Z"/><path class="cls-2" d="m153.22,48.47c.08-.52.57-3.68,3.2-5.33,2.05-1.29,4.38-1.01,4.39-.94,0,.06-1.47,0-3.04.85-2.32,1.26-3.25,3.64-3.37,3.96-.17.47-1.41,3.95.76,7.04,2.17,3.1,5.81,3.04,6.15,3.03.25,0,4.01-.2,5.91-3.37,1.92-3.2.75-7.41-1.43-9.36-3.37-3.01-9.3-.76-9.36-1.2-.05-.36,3.78-2.22,7.48-.65,2.3.98,3.45,2.81,3.74,3.31.28.48,1.34,2.39,1.1,4.98-.05.54-.41,3.81-3.2,5.84-2.62,1.9-6.4,1.99-9.17-.04-3.88-2.83-3.18-7.88-3.14-8.12Z"/><path class="cls-3" d="m154.23,47.75c.73-2.35,2.69-4.24,5.17-4.87.39-.1,3.27-.78,5.84.96,2.85,1.94,4.16,6.12,2.4,9.22-1.81,3.19-5.82,3.38-6.29,3.39-.73.02-4.37.03-6.36-2.88-1.71-2.5-.92-5.27-.75-5.83Z"/><path class="cls-2" d="m161.96,49.58c-.39-.38-1.09-.37-1.5-.04-.51.41-.46,1.23.06,1.57.37.24.9.2,1.26-.04.48-.33.63-1.06.18-1.48Z"/><path class="cls-2" d="m137.82,49.48c.08-.52.57-3.68,3.2-5.33,2.05-1.29,4.38-1.01,4.39-.94,0,.06-1.47,0-3.04.85-2.32,1.26-3.25,3.64-3.37,3.96-.17.47-1.41,3.95.76,7.04,2.17,3.1,5.81,3.04,6.15,3.03.25,0,4.01-.2,5.91-3.37,1.92-3.2.75-7.41-1.43-9.36-3.37-3.01-9.3-.76-9.36-1.2-.05-.36,3.78-2.22,7.48-.65,2.3.98,3.45,2.81,3.74,3.31.28.48,1.34,2.39,1.1,4.98-.05.54-.41,3.81-3.2,5.84-2.62,1.9-6.4,1.99-9.17-.04-3.88-2.83-3.18-7.88-3.14-8.12Z"/><path class="cls-2" d="m146.37,52.07c.48-.33.63-1.06.18-1.48-.39-.38-1.09-.37-1.5-.04-.51.41-.46,1.23.06,1.57.37.24.9.2,1.26-.04"/><path class="cls-1" d="m83.7,60.74c-15.6,27.56-31.9,54.66-46.89,82.62-4.33,8.08-10.27,19.12-6.43,25.58,2.73,4.6,9.22,4.87,12.06,5,41.43,1.82,82.86-3.54,124.31-4.41,2.31-.05,7.19-.1,9.38-3.53,4.1-6.42-5.12-18.71-18.75-42.05-25.84-44.22-38.76-66.33-40.19-69.1-4.23-8.22-8.14-16.31-14.21-16.64-6.89-.38-11.91,9.49-19.28,22.52Z"/><path class="cls-2" d="m86.42,70.24c-13.41,23.75-27.43,47.1-40.32,71.19-3.72,6.96-8.83,16.47-5.53,22.04,2.35,3.96,7.93,4.2,10.37,4.31,35.63,1.57,71.26-3.05,106.91-3.8,1.99-.04,6.19-.09,8.06-3.04,3.52-5.53-4.4-16.12-16.13-36.23-6.69-11.47-12.37-21.22-17.08-29.3-10.93-18.76-16.62-28.57-17.48-30.24-3.64-7.08-7-14.05-12.22-14.34-5.93-.33-10.24,8.18-16.58,19.41Z"/><path class="cls-1" d="m87.92,73.14c-12.16,22-24.87,43.62-36.55,65.94-3.38,6.45-8.01,15.26-5.01,20.42,2.13,3.67,7.19,3.89,9.4,3.99,32.3,1.45,64.6-2.83,96.92-3.52,1.8-.04,5.61-.08,7.31-2.82,3.19-5.13-3.99-14.93-14.62-33.56-7.84-13.73-14.16-24.8-19.01-33.32-7.62-13.37-11.64-20.48-12.32-21.83-3.3-6.56-6.35-13.01-11.08-13.28-5.37-.3-9.28,7.58-15.03,17.98Z"/><path class="cls-2" d="m97.49,117.91l-4.67,20.5,7.38-.76c-1.51,6.33-3.33,13.92-3.33,13.92h0l-1.61.18h0s.37,1.63.94,4.16c1.39-1.3,5.04-4.7,5.08-4.74,0,0,.14-.13.14-.13h0s-.74.08-2.11.23c2.43-5.97,4.85-11.95,7.28-17.92l-6.78,1.01,9.56-19.88,2.73-5.1-9.74,1.44,14.69-28.7-15.3,2.27-12.66,35.11,8.4-1.58Z"/></g></svg>