<?xml version="1.0" encoding="UTF-8"?>
<svg id="Layer_2" data-name="Layer 2" xmlns="http://www.w3.org/2000/svg" viewBox="0 0 99.08 99.68">
  <defs>
    <style>
      .cls-1 {
        fill: #1b2a59;
        fill-rule: evenodd;
        stroke-width: 0px;
      }
    </style>
  </defs>
  <g id="Layer_1-2" data-name="Layer 1">
    <path class="cls-1" d="m0,19.94c0-5.29,2.09-10.36,5.8-14.1C9.52,2.1,14.56,0,19.82,0h59.45c5.26,0,10.3,2.1,14.01,5.84,3.72,3.74,5.8,8.81,5.8,14.1v59.81c0,5.29-2.09,10.36-5.8,14.1-3.72,3.74-8.76,5.84-14.01,5.84H19.82c-5.26,0-10.3-2.1-14.01-5.84-3.72-3.74-5.8-8.81-5.8-14.1V19.94Zm19.82-9.97c-2.63,0-5.15,1.05-7.01,2.92-1.86,1.87-2.9,4.4-2.9,7.05v59.81c0,2.64,1.04,5.18,2.9,7.05,1.86,1.87,4.38,2.92,7.01,2.92h59.45c2.63,0,5.15-1.05,7.01-2.92,1.86-1.87,2.9-4.4,2.9-7.05V19.94c0-2.64-1.04-5.18-2.9-7.05-1.86-1.87-4.38-2.92-7.01-2.92H19.82Zm29.72,24.92c-3.94,0-7.72,1.58-10.51,4.38-2.79,2.8-4.35,6.61-4.35,10.57s1.57,7.77,4.35,10.57c2.79,2.8,6.57,4.38,10.51,4.38s7.72-1.58,10.51-4.38c2.79-2.8,4.35-6.61,4.35-10.57s-1.57-7.77-4.35-10.57c-2.79-2.8-6.57-4.38-10.51-4.38Zm-24.77,14.95c0-6.61,2.61-12.95,7.25-17.62,4.65-4.67,10.95-7.3,17.51-7.3s12.87,2.63,17.51,7.3c4.65,4.67,7.25,11.01,7.25,17.62s-2.61,12.95-7.25,17.62c-4.65,4.67-10.95,7.3-17.51,7.3s-12.87-2.63-17.51-7.3c-4.65-4.67-7.25-11.01-7.25-17.62h0Zm52.01-19.94c1.97,0,3.86-.79,5.25-2.19,1.39-1.4,2.18-3.3,2.18-5.29s-.78-3.88-2.18-5.29-3.28-2.19-5.25-2.19-3.86.79-5.25,2.19-2.18,3.3-2.18,5.29.78,3.88,2.18,5.29c1.39,1.4,3.28,2.19,5.25,2.19Z"/>
  </g>
</svg>