<?xml version="1.0" encoding="UTF-8"?>
<svg id="Layer_2" data-name="Layer 2" xmlns="http://www.w3.org/2000/svg" viewBox="0 0 102.97 98.66">
  <defs>
    <style>
      .cls-1 {
        fill: #1b2a59;
        stroke-width: 0px;
      }
    </style>
  </defs>
  <g id="Layer_1-2" data-name="Layer 1">
    <path class="cls-1" d="m95.34,0H7.6C3.41,0,0,3.19,0,7.11v84.43c0,3.93,3.41,7.12,7.6,7.12h87.74c4.2,0,7.63-3.19,7.63-7.12V7.11c0-3.92-3.43-7.11-7.63-7.11ZM30.54,84.07h-15.28v-47.08h15.28v47.08Zm-7.64-53.52c-4.9,0-8.85-3.8-8.85-8.49s3.96-8.48,8.85-8.48,8.85,3.8,8.85,8.48-3.97,8.49-8.85,8.49Zm64.84,53.52h-15.26v-22.89c0-5.46-.11-12.48-7.94-12.48s-9.16,5.95-9.16,12.09v23.29h-15.27v-47.08h14.65v6.43h.21c2.04-3.7,7.02-7.6,14.45-7.6,15.45,0,18.31,9.75,18.31,22.43v25.83Z"/>
  </g>
</svg>