<?xml version="1.0" encoding="UTF-8"?>
<svg id="Layer_2" data-name="Layer 2" xmlns="http://www.w3.org/2000/svg" viewBox="0 0 1311.51 539.94">
  <defs>
    <style>
      .cls-1 {
        fill: #2d3691;
      }

      .cls-1, .cls-2, .cls-3 {
        stroke-width: 0px;
      }

      .cls-2 {
        fill: #3f5eed;
      }

      .cls-3 {
        fill: #01c800;
      }
    </style>
  </defs>
  <g id="Layer_1-2" data-name="Layer 1">
    <g>
      <g>
        <path class="cls-1" d="m1276.3,96.09c-5.46-19.58-13.65-39.27-29.18-53.93-18.76-17.7-49.16-25.37-77.34-21.06-34.61,5.29-53.9,28.03-61.64,37.16-35.33,41.66-26.44,94.23-20.16,131.35,4.11,24.29,6.56,37.59,18.72,50.97,22.78,25.07,65.08,34.44,99.61,25.4,46.92-12.28,65.03-54.2,70.83-71.34,10.74-31.7,8.17-66.2-.85-98.56Zm-63.82,41.8c-12.34,4.06-26.91-2.26-34.95-10.79-.53-.56-11.96-13.11-7.45-28.79.68-2.38,3.61-12.58,14.69-18.08,1.82-.9,8.8-4.13,17.96-3,14.82,1.83,22.5,13.5,23.31,14.77,9.5,14.97,4.33,40-13.56,45.88Z"/>
        <path class="cls-1" d="m1017.76,190.58c3.24-28.56,1.77-50.54.66-67.14-2.41-35.98-9.36-53.39-.2-80.63,4.03-11.98,8.74-18.63,15.76-22.91,13.79-8.39,32.49-5.16,42.6-3.47,5.66.95,11.44,2.05,16.29,4.87,12.41,7.23,14.62,22.04,15.72,29.34,12.22,80.69,7.59,131.96,7.59,131.96-5.12,54.48-11.47,71.39-24.5,75.7-5.47,1.81-13.23,1.7-28.74,1.49-15.24-.21-23.23-1.92-29.47-3.93-4.64-1.49-8.31-2.68-11.17-4.61-13.68-9.24-7.5-34.6-4.54-60.69Z"/>
        <path class="cls-1" d="m867.91,66.11c-.77-9.37-.25-14.43.77-24.53,1.85-18.31,5.12-21.72,6.36-22.87,6.69-6.18,17.3-5.74,31.14-5.17,14.79.62,23.1.96,30.18,5.69,6.73,4.49,11.78,12.57,13.53,48.15,1.03,20.93,0,32.67-.6,56.29-.89,35.01-1.24,52.62,3.75,57.76,20.21,20.85,72.08-1.35,84.56,18.32,4.74,7.48,2.01,18.2.23,25.23-.56,2.2-4.2,15.89-14.01,24.31-11.76,10.11-26.71,7.77-62.45,6.34-72.8-2.92-81.88.5-92.41-9.56-4.88-4.66-7.37-10.02-6.16-61.96,1.67-71.59,7.14-93.31,5.12-118.02Z"/>
        <path class="cls-1" d="m886.8,121.28c-1.57-8.2-3.94-20.19-10.3-35.19-5.2-12.27-11.61-27.38-26.45-42.21-7.09-7.08-21.84-21.45-46.89-28.43-34.25-9.54-62.97,1.64-69.77,4.5-4.63,1.95-20.96,9.22-35.05,25.06-17.6,19.79-20.41,41.34-24.01,67.44-1.04,7.56-2.57,21.88-1.45,39.98.44,7.06,1.83,23.68,7.85,45.04,8.6,30.5,12.51,46.07,25.67,58.2,31.68,29.2,76.23,23.78,86.67,22.5,3.56-.44,50.96-6.95,77.57-43.86,11.41-15.83,14.31-30.73,17.44-46.86,5.64-29.04,1.29-52.83-1.27-66.16Zm-84.27,16.39c-16.86,2.8-31.64-11.14-37.73-21.44-6.79-11.47-8.14-27.46.4-38.3,1.33-1.69,4.23-5.27,9.53-7.61,14.84-6.53,32.11,3.98,33.45,4.82,15.13,9.49,24.06,29.77,15.98,45.81-.86,1.71-7.5,14.36-21.64,16.71Z"/>
        <path class="cls-1" d="m530.13,62.32c12.62-13.79,27.73-9.44,71.73-17.32,29.94-5.36,47.48-11.78,74.31-8.79,7.35.82,16.31,2.44,22.16,8.79,6.74,7.33,6.29,17.75,5.92,26.17-.44,10.12-.66,15.18-4.06,19.87-7.66,10.54-22.39,7.87-59.14,18.41-16.53,4.74-20.47,7.27-23.23,10.93-7.73,10.23-5.48,28.25,5,35.61,9.67,6.8,24.95,3.53,48.88-1.59,18.97-4.06,24.95-7.92,31.83-4.29,8.59,4.53,12.45,17.52,8.43,26.99-2.4,5.66-7.05,8.71-11.66,11.65-17.64,11.26-31.06,5.87-44.63,16.18-2.56,1.94-8.73,6.64-11.15,14.32-4.69,14.95,10.23,24.19,19.45,53.28,4.47,14.1,6.7,21.15,3.32,28.11-10.64,21.86-63.77,23.88-68.76,14.21-.89-1.72,2.5-4.2,2.25-10.27-.07-1.76-.41-3.43-1.12-5.5-2.91-8.49-9.72-16.7-13-20.71-3.03-3.7-7.69-9.48-13.43-17.01,0,0-8.09-24.97-15.43-47.39-13.6-41.5-20.65-62.19-20.77-62.49-13.04-34.33-20.99-46.5-16.97-66.41,1.35-6.7,3.04-15.05,10.08-22.75Z"/>
        <path class="cls-1" d="m560.53,335.7c10.78-1.01,22.95-8.36,30.43-15.32,4.12-3.84,9.24-8.71,9.82-15.8.43-5.27-2.24-10.37-5.25-14.95-9.92-15.12-24.02-27.62-36.22-41.33-19.88-22.34-34.85-48.19-43.77-75.58-4.24-13.01-6.81-28.01,1.49-39.18,14.11-18.99,53.42-18.87,57.32-41.53,1.91-11.12-7.53-22.02-19.11-26.45-13.12-5.02-25.59-4.22-37.05-2.06-52.5,9.89-90.39,23.56-90.39,23.56-61.16,22.07-68.88,28.93-71.89,38.14-3.6,11.01-.99,26.95,9.52,33.31,20.47,12.38,51.49-18.21,73.15-7,10.51,5.44,9.91,16.42,15.89,39.81,0,0,11.2,43.86,37.76,85.77,11.33,17.88,38.91,61.38,68.3,58.62Z"/>
        <path class="cls-1" d="m505.41,280.93c-35.9-12.96-60.72-1.14-67.6-12.59-7.69-12.79,23.05-27.93,26.42-59.76,2.89-27.26-15.34-56.49-39.83-71.73-36.18-22.52-80.34-9.67-120.19,2.3-5.86,1.76-17.02,4.03-28.95,11.78-5.52,3.58-22.73,14.77-29.61,35.53-4.26,12.84-3.12,25-.46,36.44,8,34.39,26.57,48.69,55.04,89.82,50.97,73.66,65.11,94.98,65.11,94.98,2.23,3.4,10.54,16.1,25.46,22.08,7.36,2.95,13.37,3.07,15.28,3.06,2.19,0,10.17-.23,21.22-6.21,8.52-4.62,26.55-14.39,26.99-27.11.45-13.12-18.27-16.14-39.42-43.29-7.28-9.34-20.65-26.5-15.83-34.04,6.58-10.27,44.86.61,67.55,9.78,31.99,12.93,49.1,28.96,71.42,25.55,4.15-.63,16-2.44,20.69-11.14,2.41-4.46,1.99-8.99,1.83-10.71-1.34-14.47-19.7-41.98-55.12-54.77Zm-108.89-56.01c-8.9,8.61-23.93,15.28-37.26,15.12-12.09-.15-27.04-5.39-30.24-17.02-6.19-22.54,22.9-45.81,46.89-42.74.1.01.19.03.29.05,9.09-.05,17.76,3.59,23.38,11.5,7.37,10.36,6.14,24.19-3.06,33.09Z"/>
        <path class="cls-1" d="m366.62,360.6c-3.76-43.06-26.28-72.84-42.03-93.13-21.36-27.51-53.8-69.82-105.96-74.81-28.99-2.77-51.9,7.12-57.19,9.53-5.44,2.47-35.76,16.26-47.34,44.72-9.39,23.07,1.16,47.65,22.26,96.81,11.71,27.29,22.84,44.33,45.09,78.41,8.56,13.11,13.8,20.19,22.78,27.65,26.02,21.61,56.28,24.1,63.21,24.46,6.51.34,42.58,2.23,70.39-19.99,34.57-27.62,30.7-72.01,28.81-93.66Zm-113.92-82.37c-3.44,10.59-15.2,16.51-26.25,16.02-9.66-.42-18.53-5.72-22.84-13.59-.36-.66-6.41-12.16.55-22.2,6.88-9.92,22.86-13.24,34.88-7.43,10.09,4.87,17.26,16.1,13.66,27.2Z"/>
        <path class="cls-1" d="m209.16,391.14c19.07-20.59,20.66-51.59,8.36-76.32-12.29-24.73-36.6-43.53-63.58-55.58-25.96-11.59-55.7-17.6-83.96-12.78-5.62.96-48.95,11.72-64.88,45.7-12.15,25.92-1.44,51.3,19.98,102.05,3.28,7.76,12.49,28.88,30.06,57.36,34.81,56.44,53.07,86.04,82.19,88.24,24.74,1.87,53.47-16.34,57.49-35.45,2.97-14.1-9.13-20.96-13.93-55.96-2.23-16.27-.75-22.62.54-26.26,4.54-12.78,18.21-20.72,27.73-31Zm-78.98-60.98c-8.41,11.14-25.22,13.64-36.49,8.83-4.19-1.79-8-4.72-11.07-8.96-6.39-8.83-4.01-21.04,2.73-28.78,8.23-9.47,25.53-14.85,38.54-6.76,12.85,7.99,14.53,24.75,6.29,35.67Z"/>
      </g>
      <g>
        <g>
          <g>
            <path class="cls-2" d="m1302.11,85.93c-5.46-19.58-13.65-39.27-29.18-53.93-18.76-17.7-49.16-25.37-77.34-21.06-34.61,5.29-53.9,28.03-61.64,37.16-35.33,41.66-26.44,94.23-20.16,131.35,4.11,24.29,6.56,37.59,18.72,50.97,22.78,25.07,65.08,34.44,99.61,25.4,46.92-12.28,65.03-54.2,70.83-71.34,10.74-31.7,8.17-66.2-.85-98.56Zm-63.82,41.8c-12.34,4.06-26.91-2.26-34.95-10.79-.53-.56-11.96-13.11-7.45-28.79.68-2.38,3.61-12.58,14.69-18.08,1.82-.9,8.8-4.13,17.96-3,14.82,1.83,22.5,13.5,23.31,14.77,9.5,14.97,4.33,40-13.56,45.88Z"/>
            <g>
              <path class="cls-3" d="m1303.56,85.53c-3.7-13.21-8.54-26.28-15.93-37.91-7.19-11.32-16.72-20.92-28.47-27.47-11.54-6.43-24.5-10.08-37.61-11.38s-27.32-.15-40.23,3.95c-10.93,3.47-21.05,9.02-30.05,16.1-6.27,4.94-11.88,10.61-17.06,16.67-8.17,9.54-14.8,20.06-19.4,31.77s-7.03,24.09-7.93,36.57-.3,23.97,1.01,35.87c1.21,11.05,3.07,22.01,4.94,32.97,1.96,11.48,3.79,23.3,8.69,33.97,4.6,10.01,12.25,18.27,21.04,24.77,9.76,7.23,21.1,12.26,32.81,15.38s24.77,4.47,37.25,3.64,24.56-3.69,35.83-8.88c10.06-4.63,19.21-11.13,27.06-18.93,6.75-6.72,12.55-14.39,17.4-22.58,3.81-6.45,7.04-13.24,9.72-20.24,4.4-11.49,7.08-23.56,8.22-35.81,1.44-15.44.41-31.04-2.25-46.29-1.3-7.48-3.01-14.88-5.05-22.19-.52-1.86-3.41-1.07-2.89.8,8.12,29.23,11.15,60.66,3.13,90.26-4.19,15.45-11.25,30.28-20.92,43.06-13.09,17.3-31.42,29.89-52.56,35.09-23.42,5.76-49.46,3.26-71.3-7.02-10.39-4.89-20-11.68-27.36-20.56-6.5-7.83-10.11-17.14-12.42-26.96-2.68-11.38-4.42-23.04-6.21-34.59s-3.06-22.24-3.45-33.45c-.85-24.55,3.27-49.39,16.37-70.54,4.79-7.73,10.68-14.84,17.05-21.33s14.2-12.77,22.52-17.44c22.55-12.67,50.28-14.76,74.9-7.32,11.84,3.57,23.11,9.5,32.06,18.12,9.86,9.51,16.93,21.49,22,34.14,2.42,6.05,4.43,12.26,6.18,18.54.52,1.86,3.41,1.07,2.89-.8Z"/>
              <path class="cls-3" d="m1237.9,126.28c-7.73,2.48-16.14.86-23.23-2.79-4.57-2.35-9.16-5.82-12.02-9.8-3.47-4.82-5.91-10.57-6.26-16.54-.31-5.28,1.07-10.6,3.69-15.19,7.05-12.29,22.97-16.68,35.84-11.43,9.45,3.85,16.51,11.97,18.49,21.95,2.31,11.62-1.71,25.72-12.4,31.93-1.31.76-2.68,1.38-4.12,1.86-1.82.61-1.04,3.51.8,2.89,13.28-4.46,19.99-18.73,19.3-32.08-.3-5.82-1.92-11.81-5.27-16.65-2.86-4.14-6.68-7.69-10.97-10.3-13-7.91-31.48-5.93-41.35,6.11-3.43,4.18-5.8,9.32-6.67,14.67-1.2,7.41.64,14.88,4.39,21.31,2.59,4.44,5.96,7.95,10.18,10.92,6.87,4.83,15.58,7.92,24.05,7.25,2.16-.17,4.28-.57,6.34-1.23,1.83-.59,1.05-3.48-.8-2.89Z"/>
            </g>
          </g>
          <g>
            <path class="cls-2" d="m1043.57,180.42c3.24-28.56,1.77-50.54.66-67.14-2.41-35.98-9.36-53.39-.2-80.63,4.03-11.98,8.74-18.63,15.76-22.91,13.79-8.39,32.49-5.16,42.6-3.47,5.66.95,11.44,2.05,16.29,4.87,12.41,7.23,14.62,22.04,15.72,29.34,12.22,80.69,7.59,131.96,7.59,131.96-5.12,54.48-11.47,71.39-24.5,75.7-5.47,1.81-13.23,1.7-28.74,1.49-15.24-.21-23.23-1.92-29.47-3.93-4.64-1.49-8.31-2.68-11.17-4.61-13.68-9.24-7.5-34.6-4.54-60.69Z"/>
            <path class="cls-3" d="m1045.07,180.42c2.83-25.1,2.27-50.39,0-75.51-1.09-12.03-3.02-23.99-3.83-36.05-.71-10.53-.06-20.96,2.8-31.15s7.36-21.43,17.19-27.08,22.94-5.54,34.28-3.94c5.77.81,11.71,1.61,17.24,3.45s10.44,5.48,13.69,10.5c5.46,8.42,6.36,18.85,7.73,28.53,3.59,25.46,5.97,51.11,6.84,76.81.47,13.79.56,27.63-.18,41.41-.13,2.49-.32,4.97-.56,7.45-1.2,12.39-2.57,24.8-4.86,37.04-1.39,7.43-3.04,15.08-6.11,21.99-1.06,2.38-2.31,4.7-3.89,6.78-.39.51-1.35,1.6-2.04,2.27-.34.33-.69.64-1.06.94-.41.34-.5.41-1.1.81-1.93,1.3-3.34,1.89-5.56,2.45-3.74.95-7.68,1.04-11.52,1.1-6.67.11-13.38.05-20.05-.2-5.55-.21-11.12-.65-16.58-1.73-4.54-.9-9-2.27-13.33-3.89-4.61-1.72-8.31-4.3-10.48-8.8s-2.56-9.66-2.59-14.54c-.04-6.26.66-12.52,1.43-18.72.83-6.64,1.8-13.27,2.56-19.92.22-1.91-2.78-1.9-3,0-.81,7.07-1.85,14.11-2.71,21.17-.76,6.25-1.42,12.57-1.25,18.88.14,5.07.81,10.3,3.1,14.89s6.19,7.54,10.89,9.45c9.8,3.98,20.14,5.68,30.67,6.16,6.88.31,13.81.36,20.7.27,4.19-.05,8.49-.16,12.59-1.13,4.44-1.05,8.34-3.48,11.21-7.03,3.81-4.7,6.02-10.52,7.73-16.26,2.81-9.46,4.34-19.3,5.66-29.06,1.18-8.72,2.25-17.5,2.91-26.28.8-10.64.87-21.35.75-32-.27-23.63-1.94-47.24-4.64-70.72-.88-7.61-1.86-15.22-2.96-22.8-.71-4.9-1.31-9.86-2.56-14.66-1.27-4.89-3.21-9.71-6.25-13.78-3.75-5.03-8.82-8.49-14.78-10.4-5.62-1.8-11.63-2.6-17.46-3.4s-11.68-1.25-17.54-.83c-6.15.44-12.29,1.82-17.74,4.78-4.49,2.44-8.22,5.93-11.08,10.15-3.48,5.13-5.74,11.08-7.54,16.97-1.66,5.43-2.81,11-3.38,16.65-1.11,10.87.09,21.77,1.37,32.57,2.94,24.73,5.06,49.64,4.01,74.57-.31,7.3-.88,14.58-1.7,21.84-.22,1.92,2.79,1.9,3,0Z"/>
          </g>
          <g>
            <path class="cls-2" d="m893.73,55.95c-.77-9.37-.25-14.43.77-24.53,1.85-18.31,5.12-21.72,6.36-22.87,6.69-6.18,17.3-5.74,31.14-5.17,14.79.62,23.1.96,30.18,5.69,6.73,4.49,11.78,12.57,13.53,48.15,1.03,20.93,0,32.67-.6,56.29-.89,35.01-1.24,52.62,3.75,57.76,20.21,20.85,72.08-1.35,84.56,18.32,4.74,7.48,2.01,18.2.23,25.23-.56,2.2-4.2,15.89-14.01,24.31-11.76,10.11-26.71,7.77-62.45,6.34-72.8-2.92-81.88.5-92.41-9.56-4.88-4.66-7.37-10.02-6.16-61.96,1.67-71.59,7.14-93.31,5.12-118.02Z"/>
            <path class="cls-3" d="m895.23,55.95c-.76-9.45,0-18.85,1.19-28.23.48-3.81,1.1-7.65,2.16-11.35.54-1.91,1.06-3.5,2.04-5.13.15-.25.31-.48.47-.72.24-.35-.06.06.05-.07.07-.08.14-.17.21-.25.39-.42.8-.81,1.25-1.18,2.66-2.19,6.02-3.26,9.37-3.84,4.29-.73,8.7-.67,13.04-.56,4.94.13,9.88.34,14.82.61,6.92.38,14.35.8,20.46,4.41,1.62.96,2.37,1.5,3.6,2.69s1.81,1.95,2.64,3.28c2.33,3.74,3.53,8.04,4.47,12.38,1.7,7.82,2.39,15.85,2.91,23.82,1.16,18.15.48,36.21-.09,54.36-.32,10.16-.58,20.33-.7,30.5-.08,6.96-.15,13.96.41,20.91.33,4.11.75,8.52,2.58,12.28.83,1.7,2.13,3,3.57,4.2,2.34,1.95,4.94,3.46,7.75,4.63,5.94,2.48,12.45,3.34,18.84,3.68,6.92.38,13.86.1,20.79-.09,6.42-.18,12.91-.37,19.31.38,4.79.57,10.07,1.78,13.69,5.18,5.78,5.43,4.91,14.28,3.41,21.33-1.14,5.36-2.64,10.6-5.04,15.55-3.02,6.24-7.29,12.2-13.29,15.85-4.05,2.47-8.69,3.67-13.37,4.2-6.59.74-13.27.53-19.88.28-9.69-.36-19.36-.9-29.05-1.26-16.53-.63-33.06-.97-49.6-1.37-4.93-.12-9.87-.24-14.8-.52-1.85-.1-3.71-.23-5.55-.42-1.75-.17-2.66-.28-4.29-.56-1.27-.22-2.52-.49-3.76-.84-.56-.16-1.12-.34-1.67-.54-.24-.09-.48-.18-.72-.27-.16-.06-.38-.16-.08-.03-.14-.06-.28-.12-.43-.19-.95-.43-1.86-.93-2.74-1.5-.44-.29-.87-.6-1.29-.91-.2-.15.25.2-.06-.05-.1-.08-.19-.15-.29-.23-.22-.18-.43-.36-.64-.55-.68-.59-1.34-1.21-1.95-1.87-.26-.28-.5-.57-.74-.86.16.2.05.08-.13-.18-.12-.17-.24-.35-.35-.52-.23-.36-.44-.73-.63-1.11-.1-.21-.2-.42-.3-.63-.18-.39.04.12-.03-.08-.05-.12-.1-.25-.15-.37-.42-1.14-.75-2.3-1.02-3.49-.83-3.75-1.11-7.33-1.35-11.29-.4-6.66-.46-13.35-.45-20.03.04-19.84.68-39.7,1.7-59.52.7-13.69,1.7-27.37,2.73-41.04.69-9.12,1.41-18.26,1.43-27.41,0-3.84-.13-7.68-.44-11.51-.15-1.91-3.16-1.93-3,0,.68,8.34.47,16.7-.02,25.05-.67,11.38-1.67,22.75-2.45,34.12-1.23,18.04-2.05,36.11-2.53,54.19-.26,9.94-.46,19.88-.41,29.82.03,6.29.13,12.59.62,18.85.42,5.41.8,11.93,4.09,16.52,2.42,3.38,6.06,6.04,9.88,7.6,5.69,2.33,12.2,2.58,18.27,2.89,12.64.64,25.31.68,37.95,1.01,10.09.26,20.19.59,30.27,1,9.33.38,18.65.95,27.99,1.19,10.88.28,23.14.49,32.41-6.12,10.99-7.84,16.23-21.58,18.5-34.43,1.33-7.51,1.34-16.29-4.64-21.91-3.86-3.63-9.17-5.14-14.29-5.87-13.42-1.89-27.1.16-40.59-.44-6.42-.29-13.05-1.05-19.02-3.6-2.67-1.14-5.2-2.67-7.35-4.64-.42-.39-.83-.79-1.22-1.21-.09-.1-.3-.37-.1-.1-.11-.15-.21-.3-.31-.45-.18-.28-.35-.57-.5-.86-.23-.44-.32-.66-.4-.88-1.58-4.16-1.85-8.79-2.08-13.19-.4-7.68-.27-15.39-.13-23.08.19-10.5.47-21,.83-31.49.3-8.73.64-17.46.62-26.19-.02-9.78-.43-19.58-1.31-29.32-.64-7.07-1.48-14.23-3.4-21.09-1.11-3.96-2.64-7.91-5.19-11.18-2.28-2.92-5.42-5.09-8.8-6.55-7.18-3.11-15.39-3.23-23.08-3.57-5.03-.22-10.07-.5-15.11-.47-4.15.02-8.39.24-12.41,1.34s-8.42,3.35-10.54,7.21c-2.95,5.37-3.7,12.06-4.43,18.03-1.13,9.25-1.88,18.49-1.13,27.8.15,1.91,3.15,1.93,3,0Z"/>
          </g>
          <g>
            <path class="cls-2" d="m912.61,111.12c-1.57-8.2-3.94-20.19-10.3-35.19-5.2-12.27-11.61-27.38-26.45-42.21-7.09-7.08-21.84-21.45-46.89-28.43-34.25-9.54-62.97,1.64-69.77,4.5-4.63,1.95-20.96,9.22-35.05,25.06-17.6,19.79-20.41,41.34-24.01,67.44-1.04,7.56-2.57,21.88-1.45,39.98.44,7.06,1.83,23.68,7.85,45.04,8.6,30.5,12.51,46.07,25.67,58.2,31.68,29.2,76.23,23.78,86.67,22.5,3.56-.44,50.96-6.95,77.57-43.86,11.41-15.83,14.31-30.73,17.44-46.86,5.64-29.04,1.29-52.83-1.27-66.16Zm-84.27,16.39c-16.86,2.8-31.64-11.14-37.73-21.44-6.79-11.47-8.14-27.46.4-38.3,1.33-1.69,4.23-5.27,9.53-7.61,14.84-6.53,32.11,3.98,33.45,4.82,15.13,9.49,24.06,29.77,15.98,45.81-.86,1.71-7.5,14.36-21.64,16.71Z"/>
            <g>
              <path class="cls-3" d="m914.06,110.72c-1.18-6.17-2.51-12.3-4.28-18.33-2.23-7.62-5.15-14.96-8.32-22.23-2.86-6.57-6.01-13.01-9.83-19.07-4.37-6.95-9.56-13.31-15.38-19.1-7.9-7.86-16.65-14.79-26.52-20.03C834.94,4.1,818.24.07,801.5,0c-12.5-.05-25.09,2.03-36.91,6.12-7.91,2.74-15.43,6.51-22.4,11.15-12.98,8.65-24.22,20.24-31.18,34.29-6.56,13.26-9.14,27.9-11.22,42.41s-3.32,27.65-2.91,41.68c.38,12.7,2.01,25.34,4.67,37.76,1.86,8.69,4.35,17.23,6.78,25.78,1.93,6.8,3.89,13.6,6.28,20.26,3.64,10.13,8.53,19.72,16.53,27.1,10.56,9.75,23.58,16.47,37.41,20.2,11.18,3.01,22.84,4.18,34.4,3.94,5.89-.12,11.8-.57,17.63-1.44,6.47-.96,12.87-2.59,19.1-4.57,10.79-3.44,21.23-8.14,30.77-14.27,11.89-7.64,22.35-17.56,29.99-29.5,8.98-14.03,12.72-30.34,15.49-46.57s2.81-31.89.75-47.76c-.69-5.32-1.62-10.6-2.63-15.87-.36-1.89-3.26-1.09-2.89.8,2.36,12.32,4,24.7,3.97,37.27-.02,8.73-.77,17.45-2.32,26.04-1.38,7.7-2.91,15.43-5.16,22.92-4.51,15.05-12.95,28.39-24.46,39.06-9.05,8.39-19.67,14.96-30.94,19.94-8.19,3.62-16.79,6.39-25.54,8.31-2.31.51-4.63.96-6.97,1.3-.16.02-.32.05-.47.07-.36.05-.31.04-.09.01-.31.04-.61.08-.92.11-1.28.16-2.56.3-3.84.43-9.05.91-18.2,1-27.26.1-12.68-1.26-25.28-4.57-36.6-10.51-10.7-5.62-20.64-13.44-26.79-24s-9.43-23.17-12.79-35.03c-2.39-8.41-4.82-16.81-6.64-25.37-1.43-6.74-2.57-13.55-3.33-20.4-1.46-13.05-1.61-26.25-.5-39.34.51-5.99,1.35-11.93,2.2-17.88,1.05-7.3,2.2-14.6,3.94-21.77,1.65-6.78,3.84-13.45,6.94-19.71,3.37-6.81,7.74-13.05,12.91-18.62,8.74-9.42,19.45-17.07,31.14-22.38,1.4-.64,1.99-.89,3.28-1.41,1.57-.63,3.16-1.22,4.77-1.77,4.9-1.68,9.91-2.99,15-3.97,15.41-2.95,31.44-2.57,46.62,1.45,13.62,3.61,26.36,10.13,37.28,19.04,9.85,8.04,18.59,17.57,25.22,28.43,3.6,5.9,6.59,12.12,9.33,18.46,3.12,7.2,5.93,14.49,8.08,22.05,1.6,5.65,2.83,11.39,3.94,17.15.36,1.89,3.26,1.09,2.89-.8Z"/>
              <path class="cls-3" d="m827.94,126.07c-14.64,2.33-28.71-8.57-35.89-20.51-7.49-12.46-8.09-30.3,3.55-40.49,10.43-9.14,26.13-5.56,37.01.84,11.63,6.84,19.93,20.7,18.82,34.35-.85,10.43-8.38,20.52-18.13,24.34-1.73.68-3.52,1.16-5.36,1.48s-1.09,3.22.8,2.89c11.69-2.03,21.78-11.85,24.78-23.28,4.07-15.54-4.54-32.2-17.28-41.01-4.16-2.88-8.97-4.97-13.81-6.39-7.93-2.34-16.72-2.62-24.19,1.35-6.75,3.59-11.62,10.35-13.56,17.67-2.15,8.1-1.07,16.9,2.16,24.56,2.93,6.95,7.81,13.07,13.56,17.9,6.19,5.21,13.73,9.1,21.92,9.58,2.16.13,4.29-.03,6.43-.37,1.9-.3,1.09-3.19-.8-2.89Z"/>
            </g>
          </g>
          <g>
            <path class="cls-2" d="m555.95,52.16c12.62-13.79,27.73-9.44,71.73-17.32,29.94-5.36,47.48-11.78,74.31-8.79,7.35.82,16.31,2.44,22.16,8.79,6.74,7.33,6.29,17.75,5.92,26.17-.44,10.12-.66,15.18-4.06,19.87-7.66,10.54-22.39,7.87-59.14,18.41-16.53,4.74-20.47,7.27-23.23,10.93-7.73,10.23-5.48,28.25,5,35.61,9.67,6.8,24.95,3.53,48.88-1.59,18.97-4.06,24.95-7.92,31.83-4.29,8.59,4.53,12.45,17.52,8.43,26.99-2.4,5.66-7.05,8.71-11.66,11.65-17.64,11.26-31.06,5.87-44.63,16.18-2.56,1.94-8.73,6.64-11.15,14.32-4.69,14.95,10.23,24.19,19.45,53.28,4.47,14.1,6.7,21.15,3.32,28.11-10.64,21.86-63.77,23.88-68.76,14.21-.89-1.72,2.5-4.2,2.25-10.27-.07-1.76-.41-3.43-1.12-5.5-2.91-8.49-9.72-16.7-13-20.71-3.03-3.7-7.69-9.48-13.43-17.01,0,0-8.09-24.97-15.43-47.39-13.6-41.5-20.65-62.19-20.77-62.49-13.04-34.33-20.99-46.5-16.97-66.41,1.35-6.7,3.04-15.05,10.08-22.75Z"/>
            <path class="cls-3" d="m557.01,53.22c3.24-3.52,7.13-6.19,11.65-7.8,5.39-1.92,11.14-2.67,16.79-3.36,8.43-1.03,16.87-1.88,25.28-3.03,11.57-1.59,23.04-3.73,34.47-6.1,10.06-2.09,20.14-4.35,30.37-5.43s20.52-1.05,30.58.62c4.69.78,9.39,2.08,13.39,4.74,4.23,2.82,6.94,7.12,8.17,12.01s1.11,9.48.93,14.22-.16,9.51-1.06,14.13c-1.03,5.27-4.06,9.38-8.77,11.79-4.95,2.53-10.74,3.44-16.14,4.5-9.06,1.79-18.12,3.57-27.07,5.86-5.71,1.46-11.41,3.04-17.01,4.88-3.47,1.14-6.98,2.37-10.2,4.11-12.89,6.96-13.69,26.4-5.83,37.43,4.33,6.08,10.85,8.88,18.14,9.33,9.2.57,18.59-1.53,27.54-3.37,5.84-1.2,11.69-2.41,17.48-3.86,4.12-1.03,8.21-2.24,12.36-3.15,2.47-.54,5.11-1.03,7.63-.5,3.23.68,5.99,2.83,7.95,5.44,5.29,7.05,5.96,18.11.07,25-3.29,3.85-8.07,6.72-12.52,9.03-4.68,2.43-9.7,3.96-14.85,5.03-4.44.93-8.95,1.55-13.33,2.78s-8.78,3.29-12.54,6.14c-6.15,4.67-11.43,10.87-12.41,18.8-.75,6.13,1.79,11.89,4.6,17.17,4.01,7.53,8.42,14.79,11.77,22.66,2.27,5.34,4.03,10.85,5.72,16.39,1.3,4.25,2.73,8.66,3.01,13.13.4,6.31-2.73,11.46-7.49,15.36-5.01,4.1-11.29,6.61-17.47,8.35-6.61,1.87-13.46,2.89-20.32,3.14-5.57.21-11.37.05-16.76-1.49-1.62-.46-3.56-1.21-4.56-2.09-.25-.22-.5-.46-.71-.72.2.25-.23-.67-.19-.24-.02-.21.19-.74.35-1.13.34-.78.71-1.55,1.02-2.34,1.89-4.88.87-9.96-1.11-14.63s-4.98-9.31-8.16-13.51c-2.36-3.11-4.89-6.1-7.34-9.15-1.53-1.9-3.05-3.81-4.55-5.73-.85-1.08-1.7-2.17-2.55-3.26-.45-.58-.91-1.17-1.36-1.76s-1.17-1.24-1.51-1.81c-.21-.36-.29-.88-.41-1.27-.33-1.03-.67-2.06-1-3.09-1.18-3.64-2.36-7.28-3.55-10.92-3.45-10.63-6.91-21.25-10.39-31.87-5.71-17.42-11.45-34.83-17.29-52.21-1.08-3.23-2.17-6.45-3.27-9.67-2.42-7.09-5.44-14.02-8.23-20.97-5.39-13.41-11.64-27.44-9.59-42.24,1.27-9.17,3.94-18.34,10.26-25.34,1.29-1.43-.82-3.56-2.12-2.12-6.67,7.39-9.6,16.83-11.01,26.52-.97,6.72-.53,13.42,1.08,20.01,1.95,7.96,5.13,15.6,8.18,23.19,2.89,7.19,6.02,14.35,8.53,21.69,3.53,10.31,6.95,20.66,10.38,31.01,7.08,21.35,14.06,42.73,21.01,64.12,1.14,3.49,2.27,6.99,3.4,10.48.3.93.6,1.86.9,2.79s.77,1.57,1.38,2.37c3.3,4.3,6.64,8.56,10.04,12.77,2.53,3.14,5.14,6.21,7.52,9.46,3.2,4.38,6.22,9.12,7.89,14.32.82,2.56,1.22,5.28.61,7.94-.38,1.69-1.21,3.16-1.81,4.77-1.61,4.34,4.27,6.65,7.45,7.55,5.61,1.58,11.67,1.79,17.46,1.57,7.02-.26,14.06-1.29,20.83-3.17,11.57-3.22,26.67-10.38,27.47-24.19.23-4.02-.75-8.09-1.81-11.94-1.53-5.56-3.26-11.12-5.29-16.51-3.31-8.78-7.81-16.91-12.37-25.09-2.89-5.19-6.09-10.84-5.76-16.98.42-7.78,6.12-14.07,12.17-18.36,7.99-5.67,17.61-6.18,26.84-8.43,5.44-1.32,10.68-3.36,15.49-6.23,4.25-2.54,8.57-5.38,11.53-9.43,9.05-12.36,1.18-36.34-16.13-34.13-3.64.47-7.18,1.51-10.72,2.44-5.54,1.46-11.11,2.76-16.72,3.95-9.77,2.08-19.8,4.55-29.84,4.6-7.22.04-14.2-1.87-18.54-8.06-4.8-6.84-5.83-16.31-2.91-24.1,1.03-2.74,2.44-5.05,4.55-6.93,1.74-1.54,4.13-2.72,6.37-3.66,4.59-1.93,9.42-3.33,14.2-4.71,5.73-1.65,11.51-3.13,17.33-4.46,8.04-1.83,16.16-3.2,24.21-4.98,4.94-1.09,10.2-2.37,14.34-5.44,1.99-1.48,3.69-3.32,4.97-5.45,1.99-3.31,2.63-7.13,2.97-10.92.45-5.03.69-10.15.65-15.2s-.58-9.81-2.52-14.31c-4.17-9.66-14.04-13.59-23.82-15s-20.61-1.54-30.87-.38-20.76,3.48-31.07,5.62c-11.56,2.4-23.16,4.52-34.86,6.09-8.33,1.12-16.69,1.91-25.02,2.98-5.66.73-11.44,1.54-16.79,3.63-4.58,1.8-8.57,4.55-11.91,8.17-1.31,1.42.81,3.55,2.12,2.12Z"/>
          </g>
          <g>
            <path class="cls-2" d="m586.34,325.54c10.78-1.01,22.95-8.36,30.43-15.32,4.12-3.84,9.24-8.71,9.82-15.8.43-5.27-2.24-10.37-5.25-14.95-9.92-15.12-24.02-27.62-36.22-41.33-19.88-22.34-34.85-48.19-43.77-75.58-4.24-13.01-6.81-28.01,1.49-39.18,14.11-18.99,53.42-18.87,57.32-41.53,1.91-11.12-7.53-22.02-19.11-26.45-13.12-5.02-25.59-4.22-37.05-2.06-52.5,9.89-90.39,23.56-90.39,23.56-61.16,22.07-68.88,28.93-71.89,38.14-3.6,11.01-.99,26.95,9.52,33.31,20.47,12.38,51.49-18.21,73.15-7,10.51,5.44,9.91,16.42,15.89,39.81,0,0,11.2,43.86,37.76,85.77,11.33,17.88,38.91,61.38,68.3,58.62Z"/>
            <path class="cls-3" d="m586.34,327.04c9.73-.98,18.96-5.83,26.63-11.69,6.64-5.07,14.13-11.69,15.07-20.5.55-5.19-1.72-10.19-4.37-14.5s-6.03-8.77-9.41-12.85c-6.85-8.28-14.49-15.85-21.86-23.65-14.48-15.33-27.01-32.26-36.73-51-4.76-9.18-8.84-18.7-12.16-28.5-3.03-8.94-5.73-18.7-4.28-28.21,1.22-8,5.73-14.37,12.28-18.93,5.6-3.9,11.94-6.62,18.21-9.26s12.67-5.13,18.5-8.66c5.09-3.09,9.78-7.14,12.1-12.75,3.1-7.45,1.11-15.45-3.74-21.65-6.19-7.9-15.68-12.05-25.36-13.78-10.52-1.87-20.92-.54-31.31,1.47s-21.43,4.43-32.06,7.02c-14.92,3.63-29.74,7.72-44.37,12.4-9.72,3.11-19.28,6.66-28.82,10.28-12.95,4.91-26.12,9.85-38.3,16.49-5.18,2.83-10.74,6.16-14,11.26-1.45,2.26-2.33,4.9-2.89,7.5-1.64,7.61-.83,16,2.72,22.96,3.35,6.56,9.41,11.07,16.73,12.08,6.85.94,13.8-.8,20.29-2.89,7.2-2.31,14.19-5.25,21.47-7.31,6.44-1.82,13.47-3.07,20-.97,5.16,1.66,8.8,5.23,10.78,10.24,2.74,6.93,3.78,14.57,5.42,21.81,2.07,9.14,4.73,18.05,7.82,26.9,6.17,17.66,13.67,34.9,22.63,51.33,7.54,13.82,16.13,27.32,25.68,39.84,9.27,12.14,20.15,24.59,34.09,31.44,5.96,2.93,12.55,4.67,19.22,4.07,1.91-.17,1.93-3.17,0-3-14.48,1.28-27.28-8.48-36.97-18.14-10.35-10.32-18.86-22.33-26.75-34.58-10.35-16.06-19.34-32.85-26.8-50.46-5.08-12-9.59-24.29-13.19-36.82-1.14-3.97-2.09-7.99-2.99-12.02-1.59-7.07-2.62-14.52-5.32-21.28-2.02-5.05-5.35-9.04-10.39-11.27-6.26-2.77-13.18-2.47-19.74-1.05-7.18,1.55-14.03,4.31-20.94,6.75-6.46,2.28-13.23,4.61-20.16,4.68s-13.18-2.76-16.99-8.6c-4.14-6.35-5.28-14.7-3.89-22.07.34-1.82.84-3.62,1.53-5.34-.07.17,0,0,.14-.32.1-.21.2-.42.31-.63.22-.42.45-.83.7-1.23s.54-.81.83-1.19c.12-.16-.18.21.06-.07.08-.1.16-.2.25-.3.18-.22.37-.43.56-.64.83-.91,1.74-1.75,2.7-2.54,1-.82,2.29-1.74,3.64-2.61,1.62-1.05,3.28-2.01,4.97-2.93,4.82-2.63,9.83-4.91,14.87-7.09,13.76-5.95,27.87-11.25,42.01-16.21,8.8-3.09,17.73-5.79,26.69-8.36,18.52-5.31,37.26-9.85,56.16-13.61,10.26-2.04,20.62-3.89,31.1-2.36,9.63,1.41,19.31,5.13,25.5,12.97,4.64,5.88,6.24,13.66,2.53,20.41-2.82,5.14-7.89,8.54-12.94,11.24-11.81,6.3-25.34,9.55-36.01,17.9-6.3,4.93-10.44,11.74-11.55,19.71-1.3,9.34.94,18.82,3.85,27.65,6.36,19.3,15.61,37.63,27.19,54.32,5.88,8.48,12.36,16.53,19.34,24.14s14.74,15.22,21.75,23.17c3.45,3.92,6.77,7.96,9.77,12.23s6.1,8.76,6.83,13.92c1.28,9.03-6.92,16.22-13.34,21.21-7.21,5.6-16.1,10.51-25.32,11.44-1.9.19-1.92,3.19,0,3Z"/>
          </g>
          <g>
            <path class="cls-2" d="m564.2,289.63c-38.45-33.39-86.76-16.98-94.91-37.03-5.88-14.46,18.5-24.83,20.76-54.18,2.22-28.81-17.85-58.05-39.83-71.73-40.49-25.21-88.02-9.22-120.19,2.3-17.8,6.38-42.74,15.69-60.69,40.62-6.21,8.62-15.21,21.12-16.1,37.12-1.75,31.4,29.21,38.62,72.81,95.85,33.41,43.86,54.17,68.5,65.11,94.98,1.58,3.82,6.23,15.57,17.53,21.11,15.39,7.55,32.82-1.49,34.38-2.33,1.89-1.01,19.96-11.05,21.17-27.54.76-10.36-5.73-15.13-23.56-42.71-17.63-27.27-17.15-31.67-15.83-34.04,4.55-8.16,26.71-5.9,42.73-.91,37.45,11.68,43.24,38.93,73.39,39.93,4.23.14,16.21.37,26.8-7.58,1.91-1.44,13.22-10.21,13.99-23.31.84-14.28-11.35-25.17-17.56-30.56Zm-141.86-74.86c-8.9,8.61-23.93,15.28-37.26,15.12-12.09-.15-27.04-5.39-30.24-17.02-6.19-22.54,22.9-45.81,46.89-42.74.1.01.19.03.29.05,9.09-.05,17.76,3.59,23.38,11.5,7.37,10.36,6.14,24.19-3.06,33.09Z"/>
            <g>
              <path class="cls-3" d="m565.26,288.57c-9.02-7.78-19.42-13.61-30.68-17.48-9.59-3.3-19.58-5.11-29.59-6.54-7.86-1.12-16-1.78-23.6-4.2-5.21-1.66-10.35-4.78-11.36-10.59s3.63-11.81,6.85-16.41c5.09-7.28,9.92-14.67,12.53-23.26,6.95-22.89-2.38-47.5-16.87-65.39-7.31-9.03-16.26-16.7-26.52-22.18-10.98-5.87-23.07-9.22-35.45-10.32-23.16-2.05-46.27,3.58-68.08,10.86-18.54,6.19-37.51,12.71-53.36,24.47-9.42,6.99-17.05,15.5-23.75,25.08-6.59,9.42-12.03,19.72-13.38,31.3-.75,6.44-.17,13.07,2.26,19.12,2.29,5.69,5.92,10.65,9.94,15.23,5.12,5.83,10.82,11.14,16.41,16.52,7.42,7.13,14.75,14.35,21.74,21.9,9.37,10.12,17.95,20.84,26.33,31.79,7.94,10.38,15.95,20.7,23.86,31.1,11.63,15.3,23.4,30.81,32.28,47.92,3.39,6.53,5.65,13.72,9.63,19.92,6.1,9.5,15.72,15.55,27.16,15.74,14.11.24,28.27-6.82,37.09-17.75,4.83-5.99,8.15-13.77,6.8-21.57-.97-5.58-4.57-10.53-7.69-15.1-6.57-9.64-13.25-19.18-19.45-29.07-4.26-6.8-9-13.89-11.7-21.51-.57-1.61-.86-2.74-.87-4.08,0-.11.01-.22.02-.32.02-.21-.08.38,0,.03.05-.2.1-.39.15-.58.1-.36-.17.27.07-.16.21-.38.43-.75.71-1.08,2.4-2.82,6.97-3.42,10.42-3.67,5.42-.4,10.91.13,16.25,1.03,11.24,1.9,22.16,5.54,32,11.35,7.97,4.71,14.89,10.76,21.94,16.69,6.23,5.23,12.76,10.2,20.53,12.89s16.63,3.05,24.72,1.48c8.82-1.72,16.73-6.34,22.57-13.13,6.85-7.96,10.18-18.42,6.59-28.62-3.07-8.72-9.67-15.46-16.51-21.4-1.45-1.26-3.58.85-2.12,2.12,6.96,6.05,14.03,13.08,16.41,22.3,2.58,9.99-2.14,19.57-9.27,26.41-6.42,6.16-15.15,9.65-24.31,10.15-7.98.44-15.92-.93-23.01-4.7s-13.15-9.36-19.31-14.54c-7.39-6.22-15.17-11.93-23.95-16.05-10.16-4.77-21.27-7.69-32.44-8.76-4.82-.46-9.79-.58-14.57.37-3.37.67-7.03,2.07-8.94,5.1-1.42,2.24-1.02,4.83-.25,7.24,2.24,7,6.44,13.51,10.25,19.73,6.26,10.21,13.03,20.09,19.83,29.94,3.26,4.72,7.24,9.71,8.71,15.37,1.8,6.92-1.28,14.45-5.61,19.89-3.83,4.82-8.85,8.92-14.26,11.85-6.69,3.62-14.77,5.56-22.35,5.11-11.18-.67-19.77-7.77-24.89-17.35-1.52-2.84-2.65-5.83-3.94-8.77-1.6-3.63-3.37-7.18-5.26-10.67-4.18-7.69-8.95-15.04-13.94-22.22-13.51-19.42-28.38-37.88-42.72-56.67-8.02-10.51-16.37-20.73-25.37-30.41-6.88-7.4-14.08-14.47-21.35-21.47-5.48-5.26-11.05-10.47-16.08-16.17-3.87-4.38-7.48-9.2-9.59-14.7-2.42-6.31-2.76-13.19-1.63-19.82,1.88-11.08,7.66-20.72,14.1-29.72,6.79-9.51,14.91-17.76,24.58-24.36,8.23-5.61,17.22-9.98,26.48-13.61,19.12-7.51,39.01-14.34,59.34-17.6,24.04-3.86,49.11-1.54,70.07,11.69,19.3,12.19,34.4,33.58,38.09,56.22,1.75,10.74.52,21.85-4.09,31.75-3.4,7.31-8.44,13.52-12.73,20.29-3.21,5.05-5.62,10.84-3.19,16.73,2.31,5.59,7.66,8.51,13.19,10.19,7.52,2.28,15.51,2.96,23.26,4.06,9.87,1.41,19.71,3.21,29.17,6.43,10.83,3.7,20.91,9.3,29.58,16.78,1.46,1.26,3.59-.86,2.12-2.12Z"/>
              <path class="cls-3" d="m421.28,213.7c-5.46,5.23-12.25,9.12-19.36,11.64s-14.23,3.58-21.56,2.73c-6.24-.73-12.77-2.74-17.78-6.65s-7.17-9.14-7.08-15.21c.19-12.51,10.14-22.99,20.42-28.83,5.64-3.2,11.98-5.41,18.47-5.92,3.19-.25,6.32.09,9.49.25,3.5.18,7.02.97,10.21,2.44,6.56,3.04,11.72,8.87,13.7,15.86,1.88,6.63.74,13.78-3.04,19.53-1,1.52-2.17,2.89-3.47,4.16-1.38,1.35.74,3.48,2.12,2.12,5.44-5.34,8.6-12.75,8.27-20.41s-4.14-15.21-10.17-20.12c-2.96-2.41-6.34-4.2-10-5.3s-7.43-1.21-11.22-1.53c-7-.59-14.07.95-20.49,3.68-12.17,5.17-24.09,15.72-26.76,29.21-1.24,6.25-.38,13.14,3.57,18.29,4.2,5.47,10.82,8.63,17.38,10.28,15.55,3.92,32.45-.8,45.05-10.39,1.52-1.16,2.98-2.39,4.36-3.71s-.73-3.46-2.12-2.12Z"/>
            </g>
          </g>
          <g>
            <path class="cls-2" d="m392.43,350.44c-3.76-43.06-26.28-72.84-42.03-93.13-21.36-27.51-53.8-69.82-105.96-74.81-28.99-2.77-51.9,7.12-57.19,9.53-5.44,2.47-35.76,16.26-47.34,44.72-9.39,23.07,1.16,47.65,22.26,96.81,11.71,27.29,22.84,44.33,45.09,78.41,8.56,13.11,13.8,20.19,22.78,27.65,26.02,21.61,56.28,24.1,63.21,24.46,6.51.34,42.58,2.23,70.39-19.99,34.57-27.62,30.7-72.01,28.81-93.66Zm-113.92-82.37c-3.44,10.59-15.2,16.51-26.25,16.02-9.66-.42-18.53-5.72-22.84-13.59-.36-.66-6.41-12.16.55-22.2,6.88-9.92,22.86-13.24,34.88-7.43,10.09,4.87,17.26,16.1,13.66,27.2Z"/>
            <g>
              <path class="cls-3" d="m393.93,350.44c-1.53-17.19-6.19-33.87-13.54-49.48-6.09-12.93-13.93-24.9-22.49-36.32-7.29-9.72-14.76-19.35-22.62-28.61-9.08-10.69-18.91-20.83-29.97-29.49-11.81-9.24-24.98-16.76-39.35-21.24-16.52-5.15-34.11-6-51.14-3.13-10.09,1.7-19.96,4.69-29.26,8.98-8.6,3.97-16.72,9.01-24.04,15.02-10.69,8.77-19.96,20.17-24.26,33.46-3.26,10.08-2.64,20.76-.37,30.98,3.19,14.41,8.99,28.22,14.66,41.79,6.4,15.31,12.73,30.7,20.52,45.37,7.28,13.72,15.64,26.84,24.07,39.87,5.28,8.15,10.46,16.4,16.05,24.34,4.34,6.17,9.11,11.98,14.79,16.98,12.47,10.98,27.66,18.64,43.68,22.92,8.16,2.18,16.54,3.49,24.98,3.8,10.89.39,21.9-.65,32.5-3.18,15.94-3.8,31.14-11.3,42.82-22.94,10.38-10.35,17.3-23.56,20.83-37.73,3.03-12.17,3.69-24.81,3.15-37.3-.2-4.71-.59-9.41-1-14.1-.17-1.91-3.17-1.93-3,0,.92,10.55,1.57,21.12.84,31.7-.91,13.26-3.93,26.53-10.27,38.29-7.55,14-19.55,24.93-33.77,31.95-12.52,6.18-26.46,9.32-40.36,10.16-6.89.42-13.84.3-20.7-.55-13.01-1.6-25.86-5.53-37.51-11.54-7.72-3.98-14.99-8.91-21.39-14.79-5.56-5.11-10.18-11.04-14.44-17.26-5.43-7.91-10.58-16.02-15.78-24.08-4.35-6.74-8.67-13.51-12.82-20.37-7.27-12.03-13.88-24.41-19.58-37.27-7.01-15.82-13.96-31.8-19.78-48.11-3.9-10.94-7.5-22.49-7.42-34.22s4.9-22.74,12-32.08c7.51-9.87,17.48-17.78,28.18-23.92,6-3.44,12.18-6.29,18.66-8.51,14.82-5.09,30.68-7.26,46.32-5.97,15.45,1.28,30.38,6.2,43.83,13.86,12.4,7.06,23.44,16.24,33.43,26.38,8.96,9.09,17.05,18.97,24.9,29.02s15.21,19.52,21.83,29.99c8.27,13.07,14.99,27.12,19.19,42.03,2.32,8.26,3.87,16.72,4.63,25.27.17,1.91,3.17,1.93,3,0Z"/>
              <path class="cls-3" d="m277.06,267.67c-3.15,9.42-13.21,14.67-22.7,14.94s-19.53-4.58-23.86-13.27c-1.47-2.95-2.32-6.53-2.36-9.9-.06-5.29,2.15-10.15,6.08-13.67,7.1-6.37,18.1-7.73,26.96-4.78,10.82,3.61,19.53,15.07,15.88,26.68-.58,1.85,2.32,2.64,2.89.8,3.61-11.5-3.47-23.28-13.68-28.56-9.53-4.92-21.98-4.55-31.03,1.33-4.76,3.1-8.47,7.81-9.64,13.44-.99,4.77-.32,9.82,1.49,14.31,3.78,9.39,13.43,15.36,23.25,16.45,12.09,1.35,25.6-4.96,29.62-16.98.61-1.84-2.28-2.62-2.89-.8Z"/>
            </g>
          </g>
          <g>
            <path class="cls-2" d="m234.98,380.98c19.07-20.59,20.66-51.59,8.36-76.32-12.29-24.73-36.6-43.53-63.58-55.58-25.96-11.59-55.7-17.6-83.96-12.78-5.62.96-48.95,11.72-64.88,45.7-12.15,25.92-1.44,51.3,19.98,102.05,3.28,7.76,12.49,28.88,30.06,57.36,34.81,56.44,53.07,86.04,82.19,88.24,24.74,1.87,53.47-16.34,57.49-35.45,2.97-14.1-9.13-20.96-13.93-55.96-2.23-16.27-.75-22.62.54-26.26,4.54-12.78,18.21-20.72,27.73-31Zm-78.98-60.98c-8.41,11.14-25.22,13.64-36.49,8.83-4.19-1.79-8-4.72-11.07-8.96-6.39-8.83-4.01-21.04,2.73-28.78,8.23-9.47,25.53-14.85,38.54-6.76,12.85,7.99,14.53,24.75,6.29,35.67Z"/>
            <g>
              <path class="cls-3" d="m236.04,382.04c10.58-11.52,16.23-26.63,16.65-42.2s-4.33-31.03-12.73-44.19-20.68-24.77-33.96-33.77c-14.48-9.82-30.7-17.28-47.45-22.26-17.81-5.3-36.68-7.76-55.22-5.84-8.04.83-15.52,2.73-23.08,5.57-10.74,4.04-21,9.47-30.01,16.61-10.13,8.03-18.51,18.49-22.86,30.76-3.62,10.21-3.65,21.05-1.73,31.61,2.54,13.96,7.84,27.37,13.13,40.48s10.08,24.91,15.75,37.08c6.49,13.94,13.83,27.49,21.73,40.68,9.46,15.79,19.19,31.51,29.44,46.81,7.27,10.86,14.93,21.74,24.26,30.95,6.85,6.77,14.88,12.6,24.24,15.27,12.94,3.69,26.98,1.03,38.96-4.56,12.1-5.65,24.99-15.64,28.62-29.13,2.28-8.48-1.21-16.04-4.37-23.75-5.66-13.8-9.21-28.37-10.17-43.29-.32-4.94-.42-10.09.95-14.89,1.84-6.45,6.27-11.7,11-16.29,5.5-5.33,11.62-10.02,16.85-15.63,1.32-1.41-.8-3.54-2.12-2.12-9.67,10.37-23.91,18.32-28.42,32.56-1.33,4.2-1.53,8.72-1.42,13.1.22,8.55,1.53,17.16,3.4,25.5,1.42,6.35,3.35,12.55,5.72,18.61,1.62,4.14,3.51,8.19,4.93,12.41,1.13,3.36,1.8,6.84,1.3,10.38-.81,5.83-4.04,11.15-7.88,15.49-9.72,11.02-24.5,18.37-39.06,19.99-10.12,1.13-19.93-.88-28.6-6.24-9.12-5.63-16.45-13.88-23-22.24-9.39-11.98-17.55-24.93-25.63-37.82-9.82-15.67-19.65-31.34-28.35-47.67-5.12-9.62-9.92-19.42-14.19-29.45-6.38-14.95-12.86-29.94-18.19-45.31-3.88-11.18-7.31-22.92-7.22-34.86.09-11.12,3.85-21.65,10.16-30.75,7.16-10.32,17.26-18.3,28.18-24.32,8.03-4.43,16.62-7.94,25.47-10.37,11.92-3.27,24.83-3.36,37.06-2.25,18.23,1.67,36.14,6.91,52.74,14.56,14.67,6.76,28.59,15.5,40.34,26.65s20.61,23.72,25.19,38.63,4.47,30.38-.93,44.61c-2.63,6.93-6.6,13.32-11.62,18.77-1.3,1.42.81,3.55,2.12,2.12Z"/>
              <path class="cls-3" d="m154.7,319.23c-6.24,8.14-17.39,11.44-27.3,10.16-10.86-1.4-21.19-9.8-21.21-21.39-.03-22.82,32.48-35.14,47.7-18.25,7.39,8.2,7.27,20.81.81,29.48-1.15,1.55,1.45,3.05,2.59,1.51,6.41-8.61,7.07-20.93,1.14-29.98-6.85-10.45-20.09-13.84-31.76-10.71s-21.26,11.85-23.14,23.88c-.99,6.33.4,12.6,4.36,17.68s9.23,8.49,15.33,10.02c12.18,3.06,26.3-.75,34.07-10.9,1.17-1.53-1.43-3.03-2.59-1.51Z"/>
            </g>
          </g>
        </g>
        <g>
          <path class="cls-2" d="m39.49,284.64c-.76,2.76-1.94,5.41-2.62,8.19-2.09,8.53.64,17.4,3.36,25.84"/>
          <path class="cls-3" d="m38.04,284.24c-.78,2.76-1.94,5.4-2.62,8.19s-.92,5.95-.72,8.93c.4,6.08,2.22,11.94,4.08,17.7.59,1.83,3.49,1.05,2.89-.8-1.76-5.49-3.59-11.11-3.97-16.9-.18-2.81-.03-5.62.67-8.36s1.8-5.28,2.56-7.97c.53-1.86-2.37-2.65-2.89-.8h0Z"/>
        </g>
        <g>
          <path class="cls-2" d="m42.88,278.32c1.2-2.67,3.31-5,5.97-6.59,1.08-.65,2.29-1.21,3.01-2.18"/>
          <path class="cls-3" d="m44.18,279.08c.43-.94.96-1.83,1.58-2.66-.17.22.11-.14.12-.14.09-.11.18-.22.28-.33.16-.18.32-.36.48-.53.38-.4.78-.78,1.21-1.14.09-.08.19-.15.28-.23.37-.3-.22.16.16-.12.22-.16.43-.32.66-.47.45-.3.91-.57,1.38-.84,1.1-.63,2.07-1.31,2.85-2.31.48-.62.12-1.71-.54-2.05-.8-.42-1.54-.13-2.05.54.18-.23-.12.1-.13.12-.1.1-.21.19-.31.28-.2.17.04-.02-.09.07-.1.07-.2.14-.3.2-.45.29-.92.55-1.39.82-1.02.59-1.97,1.28-2.86,2.06-1.63,1.44-3,3.23-3.91,5.22-.33.71-.23,1.65.54,2.05.66.35,1.7.22,2.05-.54h0Z"/>
        </g>
        <g>
          <path class="cls-2" d="m240.15,324.05l1.02,5.51c.26,1.41.52,2.82.68,4.24.65,5.83-.49,11.79-3.25,17.05"/>
          <path class="cls-3" d="m238.71,324.45c.81,4.38,1.93,8.81,1.81,13.29s-1.24,8.53-3.21,12.35c-.88,1.71,1.71,3.23,2.59,1.51,2.15-4.17,3.42-8.73,3.6-13.43s-1.02-9.74-1.91-14.53c-.35-1.9-3.24-1.09-2.89.8h0Z"/>
        </g>
        <g>
          <path class="cls-2" d="m237.1,357.36l-6.7,10.72"/>
          <path class="cls-3" d="m235.8,356.6c-2.23,3.57-4.46,7.15-6.7,10.72-.43.69-.15,1.65.54,2.05.72.42,1.62.15,2.05-.54,2.23-3.57,4.46-7.15,6.7-10.72.43-.69.15-1.65-.54-2.05-.72-.42-1.62-.15-2.05.54h0Z"/>
        </g>
        <g>
          <path class="cls-2" d="m233.13,333.94c-2.25,15.48-9.15,30.33-19.79,42.57"/>
          <path class="cls-3" d="m231.69,333.55c-2.29,15.51-9.16,30.06-19.41,41.91-1.26,1.45.86,3.58,2.12,2.12,10.57-12.22,17.81-27.21,20.18-43.23.28-1.89-2.61-2.7-2.89-.8h0Z"/>
        </g>
        <g>
          <path class="cls-2" d="m248.67,440.42c2.56.21,4.87,1.44,7.11,2.6,5.42,2.78,11.2,5.28,17.39,5.77"/>
          <path class="cls-3" d="m248.67,441.92c2.15.22,4.09,1.23,5.98,2.2s3.91,1.96,5.92,2.81c4.04,1.72,8.21,2.97,12.6,3.36,1.92.17,1.91-2.83,0-3-4.42-.39-8.68-1.83-12.7-3.65s-7.51-4.27-11.8-4.71c-1.92-.2-1.9,2.8,0,3h0Z"/>
        </g>
        <g>
          <path class="cls-2" d="m280.64,451.51c6.15,0,12.23,1.15,18.34,1.82s12.47.84,18.21-1.07"/>
          <path class="cls-3" d="m280.64,453.01c12.3.05,24.82,4.6,36.95.7,1.83-.59,1.05-3.49-.8-2.89-11.8,3.79-24.17-.76-36.15-.81-1.93,0-1.93,2.99,0,3h0Z"/>
        </g>
        <g>
          <path class="cls-2" d="m223.9,190.94c12.06-1.73,25.26-1.14,35.45,5.07"/>
          <path class="cls-3" d="m224.3,192.38c11.49-1.63,24.1-1.21,34.3,4.92,1.66,1,3.17-1.6,1.51-2.59-10.93-6.57-24.3-6.96-36.61-5.22-1.9.27-1.09,3.16.8,2.89h0Z"/>
        </g>
        <g>
          <path class="cls-2" d="m402.22,122.84c12.1-.33,24.32,2.38,34.93,7.75"/>
          <path class="cls-3" d="m402.22,124.34c11.8-.28,23.61,2.25,34.18,7.55,1.72.86,3.24-1.72,1.51-2.59-11.03-5.54-23.35-8.26-35.69-7.96-1.93.05-1.93,3.05,0,3h0Z"/>
        </g>
        <g>
          <path class="cls-2" d="m443.61,134.77c6.25.5,12.05,4.43,14.33,9.71"/>
          <path class="cls-3" d="m443.61,136.27c5.5.48,10.79,3.86,13.04,8.97.33.74,1.41.91,2.05.54.76-.45.87-1.31.54-2.05-2.69-6.1-9.15-9.89-15.63-10.45-.81-.07-1.5.74-1.5,1.5,0,.87.69,1.43,1.5,1.5h0Z"/>
        </g>
        <g>
          <path class="cls-2" d="m566.36,303.15c1.45,2.94,2.9,5.88,4.34,8.82.68,1.39,1.37,2.79,1.76,4.26,1.23,4.62-.53,9.38-2.27,13.83"/>
          <path class="cls-3" d="m565.07,303.9l3.26,6.61c.98,1.98,2.13,3.96,2.7,6.11,1.17,4.41-.69,8.98-2.27,13.04-.7,1.8,2.2,2.58,2.89.8,1.75-4.49,3.48-9.31,2.38-14.18-.54-2.41-1.81-4.63-2.89-6.83-1.16-2.35-2.32-4.7-3.47-7.06-.85-1.73-3.44-.21-2.59,1.51h0Z"/>
        </g>
        <g>
          <path class="cls-2" d="m549.15,61.26c9.96-.76,20.15.6,29.49,3.96,3.12,1.12,6.51,2.86,7.18,5.82"/>
          <path class="cls-3" d="m549.15,62.76c6.78-.5,13.61-.07,20.26,1.38,3.22.7,6.43,1.59,9.5,2.78,2.15.83,4.82,2.1,5.46,4.52.49,1.87,3.38,1.08,2.89-.8-.74-2.82-3.16-4.64-5.69-5.83-3.17-1.48-6.62-2.46-10.02-3.26-7.32-1.74-14.9-2.34-22.41-1.79-1.91.14-1.93,3.14,0,3h0Z"/>
        </g>
        <g>
          <path class="cls-2" d="m697.72,34.28c3.03.08,6,.9,8.76,2.06,1.59.66,3.14,1.45,4.43,2.53,1.99,1.68,3.21,3.98,3.87,6.35s.79,4.83.87,7.26"/>
          <path class="cls-3" d="m697.72,35.78c2.34.09,4.61.61,6.81,1.4,2.04.73,4.17,1.64,5.76,3.15,3.32,3.13,3.7,7.87,3.85,12.16.07,1.93,3.07,1.93,3,0-.17-5.1-.82-10.57-4.73-14.28-1.9-1.8-4.34-2.9-6.77-3.8s-5.21-1.52-7.92-1.62c-1.93-.07-1.93,2.93,0,3h0Z"/>
        </g>
        <g>
          <path class="cls-2" d="m718.2,60.7l-.14,7.48"/>
          <path class="cls-3" d="m716.7,60.7l-.14,7.48c-.01.78.7,1.54,1.5,1.5s1.48-.66,1.5-1.5l.14-7.48c.01-.78-.7-1.54-1.5-1.5s-1.48.66-1.5,1.5h0Z"/>
        </g>
        <g>
          <path class="cls-2" d="m715.43,146.68c2.12.48,4.33.4,6.49.63s4.44.86,5.81,2.39c.73.81,1.15,1.81,1.55,2.79.88,2.13,1.75,4.26,2.63,6.39"/>
          <path class="cls-3" d="m715.03,148.13c1.91.41,3.86.45,5.81.59,1.59.11,3.28.33,4.69,1.13s1.97,2.21,2.56,3.65c.79,1.93,1.59,3.85,2.38,5.78.31.75,1,1.28,1.85,1.05.71-.19,1.36-1.09,1.05-1.85-.88-2.13-1.75-4.26-2.63-6.39-.75-1.83-1.58-3.44-3.27-4.57-3.45-2.33-7.78-1.46-11.64-2.29-1.88-.4-2.69,2.49-.8,2.89h0Z"/>
        </g>
        <g>
          <path class="cls-2" d="m833.18,14.05c3.22-.12,6.13,1.66,8.76,3.37,6.15,3.98,12.3,7.95,18.44,11.93"/>
          <path class="cls-3" d="m833.18,15.55c2.29-.03,4.31.91,6.25,2.06,2.24,1.33,4.39,2.81,6.58,4.22,4.54,2.94,9.08,5.87,13.62,8.81,1.63,1.05,3.13-1.54,1.51-2.59-4.82-3.12-9.64-6.24-14.46-9.35-4.07-2.63-8.4-6.21-13.5-6.15-1.93.02-1.93,3.02,0,3h0Z"/>
        </g>
        <g>
          <path class="cls-2" d="m864.56,34.97c2.25,1.14,3.91,3.05,5.24,5.05s2.42,4.13,3.88,6.04"/>
          <path class="cls-3" d="m863.81,36.26c4.21,2.18,5.81,6.88,8.59,10.55.49.64,1.29.98,2.05.54.63-.37,1.03-1.4.54-2.05-1.57-2.08-2.73-4.42-4.23-6.55s-3.18-3.91-5.43-5.08c-.72-.37-1.63-.19-2.05.54-.39.67-.18,1.68.54,2.05h0Z"/>
        </g>
        <g>
          <path class="cls-2" d="m946.29,10.52c4.05-.32,8.01,1.75,10.65,4.57s4.17,6.32,5.57,9.78"/>
          <path class="cls-3" d="m946.29,12.02c3.49-.23,6.8,1.33,9.24,3.77,2.62,2.62,4.17,6.09,5.54,9.48.3.75,1,1.28,1.85,1.05.71-.2,1.35-1.09,1.05-1.85-1.6-3.95-3.38-7.96-6.49-10.98-2.95-2.86-7.02-4.74-11.18-4.47-1.92.13-1.93,3.13,0,3h0Z"/>
        </g>
        <g>
          <path class="cls-2" d="m965.32,31.91c.52,3.17,1.03,6.34,1.55,9.5"/>
          <path class="cls-3" d="m963.88,32.31c.52,3.17,1.03,6.34,1.55,9.5.13.78,1.13,1.28,1.85,1.05.84-.27,1.18-1.01,1.05-1.85-.52-3.17-1.03-6.34-1.55-9.5-.13-.78-1.13-1.28-1.85-1.05-.84.27-1.18,1.01-1.05,1.85h0Z"/>
        </g>
        <g>
          <path class="cls-2" d="m949.19,18.53c5.69,5.22,8.44,12.44,10.3,19.53,1.86,7.09,3.06,14.39,6.39,21.05"/>
          <path class="cls-3" d="m948.13,19.59c11.22,10.46,10.05,27.28,16.45,40.27.85,1.73,3.44.21,2.59-1.51-3.51-7.11-4.59-15.03-6.76-22.59-1.95-6.79-4.92-13.4-10.16-18.29-1.41-1.32-3.54.8-2.12,2.12h0Z"/>
        </g>
        <g>
          <path class="cls-2" d="m1110.06,15.35c3.33-.31,6.58,1.49,8.65,3.88s3.17,5.33,4.24,8.2c1.32,3.54,2.64,7.09,3.95,10.63"/>
          <path class="cls-3" d="m1110.06,16.85c4.65-.33,7.98,3.18,9.85,7.06,1.04,2.15,1.79,4.45,2.62,6.68.98,2.62,1.95,5.25,2.93,7.87.67,1.79,3.57,1.02,2.89-.8-1.08-2.91-2.16-5.81-3.24-8.72-.95-2.56-1.83-5.18-3.13-7.58-2.36-4.34-6.74-7.88-11.91-7.52-1.91.14-1.93,3.14,0,3h0Z"/>
        </g>
        <g>
          <path class="cls-2" d="m1127.91,47.65c-.35,3.8.15,7.67,1.46,11.31"/>
          <path class="cls-3" d="m1126.41,47.65c-.35,3.95.19,7.97,1.51,11.71.27.76,1.02,1.27,1.85,1.05.74-.2,1.32-1.08,1.05-1.85-1.25-3.52-1.73-7.19-1.4-10.91.07-.81-.74-1.5-1.5-1.5-.87,0-1.43.69-1.5,1.5h0Z"/>
        </g>
        <g>
          <path class="cls-2" d="m1144.1,230.34c1.69,3.44,4.81,6.2,8.31,8.26s7.4,3.5,11.26,4.92c4.18,1.54,8.36,3.08,12.54,4.61"/>
          <path class="cls-3" d="m1142.81,231.1c2.74,5.39,8.12,8.79,13.51,11.14,6.36,2.77,13,4.95,19.51,7.34,1.81.67,2.6-2.23.8-2.89-6.11-2.25-12.35-4.3-18.34-6.85-5.09-2.16-10.28-5.15-12.88-10.26-.88-1.72-3.46-.2-2.59,1.51h0Z"/>
        </g>
        <g>
          <path class="cls-2" d="m1183.62,250.04c10.28,1.87,21,1.62,31.1-.73"/>
          <path class="cls-3" d="m1183.23,251.48c10.58,1.89,21.42,1.67,31.9-.73,1.88-.43,1.09-3.32-.8-2.89-9.93,2.27-20.27,2.51-30.3.73-1.89-.34-2.7,2.55-.8,2.89h0Z"/>
        </g>
        <g>
          <path class="cls-2" d="m1158.51,234.65c13.47,6.05,28.17,9.81,43.1,11.03"/>
          <path class="cls-3" d="m1157.75,235.95c13.88,6.21,28.71,9.97,43.86,11.24,1.92.16,1.91-2.84,0-3-14.58-1.21-28.98-4.85-42.35-10.83-1.75-.78-3.28,1.8-1.51,2.59h0Z"/>
        </g>
        <g>
          <path class="cls-2" d="m738.8,240.9c5.34,2.34,9.03,7.2,14.55,9.16,2.36.84,4.92,1.08,7.32,1.82,4.42,1.35,8.43,4.34,13.07,4.16"/>
          <path class="cls-3" d="m738.05,242.2c5.81,2.62,9.89,7.98,16.18,9.7,1.72.47,3.48.73,5.2,1.18,1.62.43,3.16,1.07,4.69,1.75,3.09,1.38,6.18,2.77,9.63,2.7,1.93-.04,1.93-3.04,0-3-3.26.07-6.15-1.44-9.06-2.71-1.46-.64-2.93-1.23-4.47-1.64-1.72-.45-3.48-.71-5.2-1.18-5.97-1.64-9.92-6.9-15.46-9.4-1.75-.79-3.27,1.8-1.51,2.59h0Z"/>
        </g>
        <g>
          <path class="cls-2" d="m779.51,257.59c7.01.79,14.03,1.58,21.04,2.36"/>
          <path class="cls-3" d="m779.51,259.09c7.01.79,14.03,1.58,21.04,2.36.81.09,1.49-.75,1.5-1.5,0-.89-.7-1.41-1.5-1.5-7.01-.79-14.03-1.58-21.04-2.36-.81-.09-1.49.75-1.5,1.5,0,.89.7,1.41,1.5,1.5h0Z"/>
        </g>
        <g>
          <path class="cls-2" d="m734.98,227.13c3.75,2.82,7.5,5.64,11.25,8.45,3.52,2.64,7.04,5.29,10.87,7.56,1.77,1.05,3.62,2.03,5.61,2.68,1.73.57,3.55.9,5.31,1.38,2.03.56,3.99,1.33,5.98,2.01,6.23,2.13,12.83,3.38,19.46,3.69"/>
          <path class="cls-3" d="m734.22,228.42c6.99,5.25,13.84,10.94,21.31,15.52,1.71,1.05,3.46,2.01,5.32,2.78,1.98.81,4.05,1.23,6.11,1.76,4.09,1.05,7.97,2.76,12.07,3.8,4.72,1.2,9.57,1.89,14.44,2.13,1.93.09,1.92-2.91,0-3-4.21-.21-8.39-.78-12.49-1.74s-7.9-2.53-11.9-3.72c-1.9-.56-3.85-.9-5.74-1.5s-3.73-1.57-5.47-2.6c-3.6-2.13-6.96-4.63-10.3-7.13-3.94-2.96-7.88-5.92-11.82-8.88-1.54-1.16-3.04,1.44-1.51,2.59h0Z"/>
        </g>
        <g>
          <path class="cls-2" d="m552.53,290.13c4.22,1.14,7.94,3.78,10.14,7.23"/>
          <path class="cls-3" d="m552.13,291.58c1.02.28,1.92.61,2.73.99.93.44,1.83.97,2.67,1.56.45.32.57.41,1,.78.37.32.73.66,1.08,1.01s.7.75,1.02,1.15c.04.05.14.18.05.06.08.1.15.2.23.31.16.23.32.46.47.69.44.68,1.33.96,2.05.54.68-.4.98-1.37.54-2.05-2.53-3.92-6.56-6.69-11.04-7.92-.78-.21-1.63.27-1.85,1.05s.26,1.63,1.05,1.85h0Z"/>
        </g>
        <g>
          <path class="cls-2" d="m611.17,287.35c3.47,6.78,1.34,15.48-4.95,20.22"/>
          <path class="cls-3" d="m609.87,288.11c3.09,6.18,1.02,14-4.41,18.17-.65.5-.97,1.29-.54,2.05.36.64,1.41,1.03,2.05.54,6.79-5.21,9.37-14.5,5.49-22.27-.86-1.73-3.45-.21-2.59,1.51h0Z"/>
        </g>
        <g>
          <path class="cls-2" d="m556.91,68.85c8.2-.29,16.52,2.58,22.45,7.76"/>
          <path class="cls-3" d="m556.91,70.35c7.7-.23,15.51,2.26,21.38,7.32,1.46,1.26,3.59-.86,2.12-2.12-6.47-5.58-14.99-8.46-23.51-8.2-1.93.06-1.93,3.06,0,3h0Z"/>
        </g>
        <path class="cls-3" d="m579.04,78.4c1.93,0,1.93-3,0-3s-1.93,3,0,3h0Z"/>
        <g>
          <path class="cls-2" d="m587.86,78.57c.16,2.5-.34,5.02-1.46,7.29"/>
          <path class="cls-3" d="m586.36,78.57c.04.61.04,1.23,0,1.84,0,.13-.02.26-.03.39,0,.06-.07.62-.02.25-.04.28-.09.56-.14.84-.12.58-.27,1.16-.46,1.72-.1.29-.21.58-.32.87-.16.41.13-.27-.06.13-.07.16-.15.32-.23.48-.34.7-.22,1.65.54,2.05.67.36,1.69.22,2.05-.54,1.22-2.5,1.83-5.26,1.67-8.05-.05-.78-.66-1.54-1.5-1.5-.77.03-1.55.66-1.5,1.5h0Z"/>
        </g>
        <g>
          <path class="cls-2" d="m1046.11,190.51c5.45,3.16,7.85,10,5.38,15.33"/>
          <path class="cls-3" d="m1045.36,191.8c4.4,2.6,7.05,8.4,4.85,13.28-.33.74-.21,1.61.54,2.05.64.38,1.72.2,2.05-.54,2.88-6.39,0-13.88-5.92-17.38-1.67-.98-3.18,1.61-1.51,2.59h0Z"/>
        </g>
        <g>
          <path class="cls-2" d="m1057.14,192.54c1.11,5.84,1.26,11.82.43,17.68-.48,3.44-1.31,6.87-2.9,10.02"/>
          <path class="cls-3" d="m1055.7,192.94c.84,4.52,1.09,9.12.76,13.71s-1.11,8.86-3.08,12.84c-.85,1.72,1.73,3.25,2.59,1.51,4.3-8.71,4.35-19.49,2.62-28.86-.35-1.9-3.24-1.09-2.89.8h0Z"/>
        </g>
        <g>
          <path class="cls-2" d="m1249.49,24.38c4.04,2.66,8.07,5.32,12.11,7.98,6.36,4.19,13.08,8.81,15.6,15.51"/>
          <path class="cls-3" d="m1248.73,25.67c5.38,3.55,10.86,6.99,16.13,10.7,4.37,3.08,8.89,6.77,10.89,11.9.69,1.78,3.6,1.01,2.89-.8-2.16-5.55-6.56-9.55-11.28-12.98-5.54-4.03-11.4-7.64-17.12-11.41-1.62-1.07-3.12,1.53-1.51,2.59h0Z"/>
        </g>
        <g>
          <path class="cls-2" d="m1231.46,18.28c4.04-.36,7.35,3.26,11.41,3.61"/>
          <path class="cls-3" d="m1231.46,19.78c1.04-.08,1.66.02,2.68.36.92.3,1.64.66,2.57,1.13,1.98.98,3.93,1.91,6.16,2.13.81.08,1.5-.75,1.5-1.5,0-.88-.69-1.42-1.5-1.5-.22-.02-.06,0-.19-.02-.11-.02-.22-.04-.33-.06-.25-.05-.49-.11-.73-.18s-.48-.15-.72-.24c-.11-.04-.21-.08-.32-.12-.04-.01-.35-.14-.19-.07-.95-.39-1.85-.88-2.78-1.33-1.92-.93-3.97-1.76-6.15-1.59-.81.06-1.5.65-1.5,1.5,0,.76.69,1.56,1.5,1.5h0Z"/>
        </g>
      </g>
    </g>
  </g>
</svg>