<?xml version="1.0" encoding="UTF-8"?>
<svg id="Layer_2" data-name="Layer 2" xmlns="http://www.w3.org/2000/svg" viewBox="0 0 1466.99 539.6">
  <defs>
    <style>
      .cls-1 {
        stroke-width: 0px;
      }
    </style>
  </defs>
  <g id="Layer_1-2" data-name="Layer 1">
    <path class="cls-1" d="m1465.54,3c1.93,0,1.93-3,0-3s-1.93,3,0,3h0Z"/>
    <path class="cls-1" d="m256.65,219.25c4.54-62.06,93.62-111.57,202.85-111.57h1.04c18.02-25.07,53.69-42.15,94.75-42.15,6.13,0,12.14.38,17.98,1.12,31.5-27.77,82.04-45.76,139.04-45.76,60.66,0,114.04,20.39,144.9,51.24,11.61-4.27,24.16-6.6,37.22-6.6,34.8,0,65.81,16.49,85.82,42.18.95-.02,1.89-.03,2.85-.03,49.6,0,91.29,28.79,103.16,67.77,7.9-.53,15.93-.81,24.07-.81,118.32,0,214.24,58.28,214.24,130.19,0,66.43-81.89,121.24-187.67,129.18-30.89,61.06-127,105.59-240.8,105.59-54.87,0-105.64-10.36-146.96-27.92-32.79,4.6-67.83,7.09-104.26,7.09-120.54,0-226.05-27.28-284.13-68.09C155.09,439.55,0,389.87,0,330.26c0-49.03,104.94-91.35,256.65-111.01Zm641.41,67.87c.02-.06.03-.12.04-.18-.13.01-.26.02-.39.01.11.06.23.11.34.17Z"/>
    <path class="cls-1" d="m897.72,286.95c.11.06.23.11.34.17.02-.06.03-.12.04-.18-.13.01-.26.02-.39.01Z"/>
    <path class="cls-1" d="m897.72,286.95c.11.06.23.11.34.17.02-.06.03-.12.04-.18-.13.01-.26.02-.39.01Z"/>
  </g>
</svg>